<svg  xmlns="http://www.w3.org/2000/svg" xmlns:xlink="http://www.w3.org/1999/xlink" width="723" height="300" viewBox="0 0 747 324"><path transform="translate(0 100)" d="M9,-0L9,-81L59.2,-81L59.2,-0L9,-0ZM19.3,-9L48.9,-9L48.9,-72L19.3,-72L19.3,-9Z"></path><path transform="translate(68 100)" d="M9,-0L9,-81L59.2,-81L59.2,-0L9,-0ZM19.3,-9L48.9,-9L48.9,-72L19.3,-72L19.3,-9Z"></path><path transform="translate(136 100)" d="M9,-0L9,-81L59.2,-81L59.2,-0L9,-0ZM19.3,-9L48.9,-9L48.9,-72L19.3,-72L19.3,-9Z"></path><path transform="translate(204 100)" d="M9,-0L9,-81L59.2,-81L59.2,-0L9,-0ZM19.3,-9L48.9,-9L48.9,-72L19.3,-72L19.3,-9Z"></path><path transform="translate(272 100)" d="M9,-0L9,-81L59.2,-81L59.2,-0L9,-0ZM19.3,-9L48.9,-9L48.9,-72L19.3,-72L19.3,-9Z"></path><path transform="translate(340 100)" d="M9,-0L9,-81L59.2,-81L59.2,-0L9,-0ZM19.3,-9L48.9,-9L48.9,-72L19.3,-72L19.3,-9Z"></path><path transform="translate(0 200)" d="M15.2,-0L15.2,-72.6L1.5,-72.6L1.5,-81L39.8,-81L39.8,-72.6L26.5,-72.6L26.5,-0L15.2,-0Z"></path><path transform="translate(41 200)" d="M5.7,-0L5.7,-81L16.4,-81L16.4,-51.8Q19.3,-54.6 22.9,-56.6Q26.5,-58.6 30.9,-58.6Q34.3,-58.6 36.15,-56.8Q38,-55 38.75,-52.3Q39.5,-49.6 39.5,-46.8L39.5,-0L28.8,-0L28.8,-43.7Q28.8,-46.8 27.9,-48.5Q27,-50.2 24.2,-50.2Q22.3,-50.2 20.25,-49.1Q18.2,-48 16.4,-46.4L16.4,-0L5.7,-0Z"></path><path transform="translate(85 200)" d="M21.4,0.8Q14.6,0.8 10.9,-1.85Q7.2,-4.5 5.75,-9.65Q4.3,-14.8 4.3,-22.3L4.3,-35.5Q4.3,-43.2 5.8,-48.3Q7.3,-53.4 11.05,-56Q14.8,-58.6 21.4,-58.6Q28.7,-58.6 32.15,-55.6Q35.6,-52.6 36.7,-46.95Q37.8,-41.3 37.8,-33.4L37.8,-28.7L15,-28.7L15,-17.1Q15,-13.6 15.65,-11.4Q16.3,-9.2 17.75,-8.15Q19.2,-7.1 21.5,-7.1Q23.9,-7.1 25.15,-8.25Q26.4,-9.4 26.85,-11.55Q27.3,-13.7 27.3,-16.6L27.3,-20.1L37.7,-20.1L37.7,-17.9Q37.7,-9.2 34,-4.2Q30.3,0.8 21.4,0.8ZM15,-34.5L27.3,-34.5L27.3,-39.7Q27.3,-43.3 26.9,-45.75Q26.5,-48.2 25.25,-49.45Q24,-50.7 21.3,-50.7Q18.7,-50.7 17.35,-49.5Q16,-48.3 15.5,-45.45Q15,-42.6 15,-37.6L15,-34.5Z"></path><path transform="translate(127 200)" d=""></path><path transform="translate(150 200)" d="M6.3,-0L6.3,-81L26.4,-81Q33.7,-81 38.05,-78.35Q42.4,-75.7 44.4,-70.7Q46.4,-65.7 46.4,-58.6Q46.4,-52.2 44.15,-47.5Q41.9,-42.8 37.5,-40.25Q33.1,-37.7 26.5,-37.7L17.6,-37.7L17.6,-0L6.3,-0ZM17.6,-45.8L22.8,-45.8Q27.7,-45.8 30.5,-46.9Q33.3,-48 34.5,-50.75Q35.7,-53.5 35.7,-58.5Q35.7,-64.3 34.85,-67.4Q34,-70.5 31.3,-71.7Q28.6,-72.9 22.9,-72.9L17.6,-72.9L17.6,-45.8Z"></path><path transform="translate(197 200)" d="M5.7,-0L5.7,-57.8L16.4,-57.8L16.4,-49.6Q19.6,-54.9 22.8,-56.7Q26,-58.5 29.2,-58.5Q29.6,-58.5 29.95,-58.5Q30.3,-58.5 30.9,-58.4L30.9,-46.6Q29.7,-47.1 28.15,-47.45Q26.6,-47.8 25,-47.8Q22.5,-47.8 20.45,-46.65Q18.4,-45.5 16.4,-42.2L16.4,-0L5.7,-0Z"></path><path transform="translate(229 200)" d="M21.3,0.8Q14.9,0.8 11.2,-1.8Q7.5,-4.4 5.95,-9.2Q4.4,-14 4.4,-20.5L4.4,-37.3Q4.4,-43.8 5.95,-48.6Q7.5,-53.4 11.2,-56Q14.9,-58.6 21.3,-58.6Q27.7,-58.6 31.35,-56Q35,-53.4 36.55,-48.6Q38.1,-43.8 38.1,-37.3L38.1,-20.5Q38.1,-14 36.55,-9.2Q35,-4.4 31.35,-1.8Q27.7,0.8 21.3,0.8ZM21.3,-7.1Q24.4,-7.1 25.65,-8.9Q26.9,-10.7 27.15,-13.65Q27.4,-16.6 27.4,-19.8L27.4,-37.9Q27.4,-41.2 27.15,-44.1Q26.9,-47 25.65,-48.85Q24.4,-50.7 21.3,-50.7Q18.2,-50.7 16.9,-48.85Q15.6,-47 15.35,-44.1Q15.1,-41.2 15.1,-37.9L15.1,-19.8Q15.1,-16.6 15.35,-13.65Q15.6,-10.7 16.9,-8.9Q18.2,-7.1 21.3,-7.1Z"></path><path transform="translate(271 200)" d="M3.6,14.6Q2.3,14.6 0.75,14.45Q-0.8,14.3 -1.9,13.9L-1.9,6.2Q-1.4,6.3 -0.5,6.4Q0.4,6.5 0.9,6.5Q3.2,6.5 4.5,5.6Q5.8,4.7 6.35,3.1Q6.9,1.5 6.9,-0.5L6.9,-57.8L17.6,-57.8L17.6,0.6Q17.6,7.4 13.85,11Q10.1,14.6 3.6,14.6ZM6.9,-66.4L6.9,-77.6L17.7,-77.6L17.7,-66.4L6.9,-66.4Z"></path><path transform="translate(294 200)" d="M21.4,0.8Q14.6,0.8 10.9,-1.85Q7.2,-4.5 5.75,-9.65Q4.3,-14.8 4.3,-22.3L4.3,-35.5Q4.3,-43.2 5.8,-48.3Q7.3,-53.4 11.05,-56Q14.8,-58.6 21.4,-58.6Q28.7,-58.6 32.15,-55.6Q35.6,-52.6 36.7,-46.95Q37.8,-41.3 37.8,-33.4L37.8,-28.7L15,-28.7L15,-17.1Q15,-13.6 15.65,-11.4Q16.3,-9.2 17.75,-8.15Q19.2,-7.1 21.5,-7.1Q23.9,-7.1 25.15,-8.25Q26.4,-9.4 26.85,-11.55Q27.3,-13.7 27.3,-16.6L27.3,-20.1L37.7,-20.1L37.7,-17.9Q37.7,-9.2 34,-4.2Q30.3,0.8 21.4,0.8ZM15,-34.5L27.3,-34.5L27.3,-39.7Q27.3,-43.3 26.9,-45.75Q26.5,-48.2 25.25,-49.45Q24,-50.7 21.3,-50.7Q18.7,-50.7 17.35,-49.5Q16,-48.3 15.5,-45.45Q15,-42.6 15,-37.6L15,-34.5Z"></path><path transform="translate(336 200)" d="M21.2,0.8Q14.1,0.8 10.45,-2.05Q6.8,-4.9 5.55,-10.1Q4.3,-15.3 4.3,-22.2L4.3,-35.5Q4.3,-42.8 5.6,-47.95Q6.9,-53.1 10.55,-55.85Q14.2,-58.6 21.2,-58.6Q27.5,-58.6 30.95,-56.55Q34.4,-54.5 35.7,-50.45Q37,-46.4 37,-40.4L37,-37L27.3,-37L27.3,-40.5Q27.3,-44.3 26.8,-46.5Q26.3,-48.7 25,-49.7Q23.7,-50.7 21.3,-50.7Q18.7,-50.7 17.3,-49.5Q15.9,-48.3 15.45,-45.45Q15,-42.6 15,-37.7L15,-19.5Q15,-12.1 16.4,-9.6Q17.8,-7.1 21.4,-7.1Q24.1,-7.1 25.35,-8.35Q26.6,-9.6 26.95,-11.9Q27.3,-14.2 27.3,-17.1L27.3,-21.8L37,-21.8L37,-17.8Q37,-12 35.65,-7.8Q34.3,-3.6 30.85,-1.4Q27.4,0.8 21.2,0.8Z"></path><path transform="translate(377 200)" d="M20.8,0.8Q16.3,0.8 13.55,-0.9Q10.8,-2.6 9.55,-5.7Q8.3,-8.8 8.3,-13L8.3,-50.7L2.2,-50.7L2.2,-57.8L8.3,-57.8L8.3,-74.7L19,-74.7L19,-57.8L28.3,-57.8L28.3,-50.7L19,-50.7L19,-13.7Q19,-10.3 20.1,-8.85Q21.2,-7.4 24.3,-7.4Q25.1,-7.4 26.15,-7.5Q27.2,-7.6 28.2,-7.7L28.2,0.2Q26.2,0.5 24.5,0.65Q22.8,0.8 20.8,0.8Z"></path><path transform="translate(408 200)" d=""></path><path transform="translate(431 200)" d="M6.3,-0L6.3,-81L37.6,-81L37.6,-72.9L17.6,-72.9L17.6,-45.9L33.1,-45.9L33.1,-37.9L17.6,-37.9L17.6,-0L6.3,-0Z"></path><path transform="translate(469 200)" d="M21.3,0.8Q14.9,0.8 11.2,-1.8Q7.5,-4.4 5.95,-9.2Q4.4,-14 4.4,-20.5L4.4,-37.3Q4.4,-43.8 5.95,-48.6Q7.5,-53.4 11.2,-56Q14.9,-58.6 21.3,-58.6Q27.7,-58.6 31.35,-56Q35,-53.4 36.55,-48.6Q38.1,-43.8 38.1,-37.3L38.1,-20.5Q38.1,-14 36.55,-9.2Q35,-4.4 31.35,-1.8Q27.7,0.8 21.3,0.8ZM21.3,-7.1Q24.4,-7.1 25.65,-8.9Q26.9,-10.7 27.15,-13.65Q27.4,-16.6 27.4,-19.8L27.4,-37.9Q27.4,-41.2 27.15,-44.1Q26.9,-47 25.65,-48.85Q24.4,-50.7 21.3,-50.7Q18.2,-50.7 16.9,-48.85Q15.6,-47 15.35,-44.1Q15.1,-41.2 15.1,-37.9L15.1,-19.8Q15.1,-16.6 15.35,-13.65Q15.6,-10.7 16.9,-8.9Q18.2,-7.1 21.3,-7.1Z"></path><path transform="translate(511 200)" d="M5.7,-0L5.7,-57.8L16.4,-57.8L16.4,-49.6Q19.6,-54.9 22.8,-56.7Q26,-58.5 29.2,-58.5Q29.6,-58.5 29.95,-58.5Q30.3,-58.5 30.9,-58.4L30.9,-46.6Q29.7,-47.1 28.15,-47.45Q26.6,-47.8 25,-47.8Q22.5,-47.8 20.45,-46.65Q18.4,-45.5 16.4,-42.2L16.4,-0L5.7,-0Z"></path><path transform="translate(543 200)" d=""></path><path transform="translate(566 200)" d="M16.8,-0L3.6,-81L13,-81L21.7,-22.8L32.6,-80.7L40.6,-80.7L51.6,-22.5L60.1,-81L69.3,-81L56.3,-0L48.1,-0L36.8,-60L25.4,-0L16.8,-0Z"></path><path transform="translate(636 200)" d="M21.4,0.8Q14.6,0.8 10.9,-1.85Q7.2,-4.5 5.75,-9.65Q4.3,-14.8 4.3,-22.3L4.3,-35.5Q4.3,-43.2 5.8,-48.3Q7.3,-53.4 11.05,-56Q14.8,-58.6 21.4,-58.6Q28.7,-58.6 32.15,-55.6Q35.6,-52.6 36.7,-46.95Q37.8,-41.3 37.8,-33.4L37.8,-28.7L15,-28.7L15,-17.1Q15,-13.6 15.65,-11.4Q16.3,-9.2 17.75,-8.15Q19.2,-7.1 21.5,-7.1Q23.9,-7.1 25.15,-8.25Q26.4,-9.4 26.85,-11.55Q27.3,-13.7 27.3,-16.6L27.3,-20.1L37.7,-20.1L37.7,-17.9Q37.7,-9.2 34,-4.2Q30.3,0.8 21.4,0.8ZM15,-34.5L27.3,-34.5L27.3,-39.7Q27.3,-43.3 26.9,-45.75Q26.5,-48.2 25.25,-49.45Q24,-50.7 21.3,-50.7Q18.7,-50.7 17.35,-49.5Q16,-48.3 15.5,-45.45Q15,-42.6 15,-37.6L15,-34.5Z"></path><path transform="translate(678 200)" d="M26.1,0.8Q23,0.8 20.55,-0.75Q18.1,-2.3 16.3,-4.2L16.3,-0L5.6,-0L5.6,-81L16.3,-81L16.3,-53.2Q18.2,-55.4 20.85,-57Q23.5,-58.6 27.2,-58.6Q31.7,-58.6 34.35,-56.25Q37,-53.9 38.3,-50.35Q39.6,-46.8 40,-43.15Q40.4,-39.5 40.4,-36.9L40.4,-22.9Q40.4,-16.8 39.2,-11.35Q38,-5.9 34.9,-2.55Q31.8,0.8 26.1,0.8ZM23.9,-7.6Q26.7,-7.6 27.9,-9.65Q29.1,-11.7 29.4,-15.2Q29.7,-18.7 29.7,-22.9L29.7,-36.9Q29.7,-40.5 29.3,-43.55Q28.9,-46.6 27.6,-48.4Q26.3,-50.2 23.5,-50.2Q21.4,-50.2 19.55,-49.3Q17.7,-48.4 16.3,-47.3L16.3,-10.2Q17.7,-9.1 19.65,-8.35Q21.6,-7.6 23.9,-7.6Z"></path></svg>