<svg xmlns="http://www.w3.org/2000/svg" version="1.1" xmlns:xlink="http://www.w3.org/1999/xlink" xmlns:svgjs="http://svgjs.dev/svgjs" viewBox="0 0 800 800"><defs><linearGradient x1="50%" y1="0%" x2="50%" y2="100%" id="ffflurry-grad" gradientTransform="rotate(270)"><stop stop-color="hsl(248, 100%, 4%)" stop-opacity="1" offset="0%"></stop><stop stop-color="hsl(0, 0%, 100%)" stop-opacity="1" offset="45%"></stop><stop stop-color="hsl(180, 69%, 60%)" stop-opacity="1" offset="100%"></stop></linearGradient></defs><rect width="100%" height="100%" fill="hsl(248, 100%, 4%)"></rect><g fill="url(#ffflurry-grad)"><rect width="275" height="4" x="114.5" y="94" rx="2" transform="rotate(40, 252, 96)" opacity="0.49"></rect><rect width="189" height="4" x="677.5" y="285" rx="2" transform="rotate(40, 772, 287)" opacity="0.52"></rect><rect width="115" height="4" x="395.5" y="409" rx="2" transform="rotate(40, 453, 411)" opacity="0.81"></rect><rect width="296" height="4" x="475" y="629" rx="2" transform="rotate(40, 623, 631)" opacity="0.80"></rect><rect width="324" height="4" x="199" y="371" rx="2" transform="rotate(40, 361, 373)" opacity="0.95"></rect><rect width="275" height="4" x="235.5" y="93" rx="2" transform="rotate(40, 373, 95)" opacity="0.95"></rect><rect width="309" height="4" x="-89.5" y="678" rx="2" transform="rotate(40, 65, 680)" opacity="0.44"></rect><rect width="205" height="4" x="539.5" y="539" rx="2" transform="rotate(40, 642, 541)" opacity="0.65"></rect><rect width="278" height="4" x="113" y="740" rx="2" transform="rotate(40, 252, 742)" opacity="0.89"></rect><rect width="180" height="4" x="514" y="747" rx="2" transform="rotate(40, 604, 749)" opacity="0.77"></rect><rect width="168" height="4" x="-46" y="399" rx="2" transform="rotate(40, 38, 401)" opacity="0.65"></rect><rect width="307" height="4" x="23.5" y="313" rx="2" transform="rotate(40, 177, 315)" opacity="0.41"></rect><rect width="44" height="4" x="636" y="170" rx="2" transform="rotate(40, 658, 172)" opacity="0.27"></rect><rect width="130" height="4" x="337" y="167" rx="2" transform="rotate(40, 402, 169)" opacity="0.92"></rect><rect width="185" height="4" x="125.5" y="29" rx="2" transform="rotate(40, 218, 31)" opacity="0.51"></rect><rect width="168" height="4" x="689" y="635" rx="2" transform="rotate(40, 773, 637)" opacity="0.35"></rect><rect width="113" height="4" x="648.5" y="51" rx="2" transform="rotate(40, 705, 53)" opacity="0.33"></rect><rect width="62" height="4" x="141" y="525" rx="2" transform="rotate(40, 172, 527)" opacity="0.82"></rect><rect width="304" height="4" x="214" y="474" rx="2" transform="rotate(40, 366, 476)" opacity="0.21"></rect><rect width="191" height="4" x="146.5" y="268" rx="2" transform="rotate(40, 242, 270)" opacity="0.24"></rect><rect width="423" height="4" x="221.5" y="326" rx="2" transform="rotate(40, 433, 328)" opacity="0.12"></rect><rect width="257" height="4" x="58.5" y="766" rx="2" transform="rotate(40, 187, 768)" opacity="0.62"></rect><rect width="138" height="4" x="-21" y="177" rx="2" transform="rotate(40, 48, 179)" opacity="0.93"></rect><rect width="83" height="4" x="701.5" y="371" rx="2" transform="rotate(40, 743, 373)" opacity="0.09"></rect><rect width="229" height="4" x="-96.5" y="719" rx="2" transform="rotate(40, 18, 721)" opacity="0.72"></rect><rect width="159" height="4" x="239.5" y="775" rx="2" transform="rotate(40, 319, 777)" opacity="0.30"></rect><rect width="257" height="4" x="635.5" y="29" rx="2" transform="rotate(40, 764, 31)" opacity="0.50"></rect><rect width="201" height="4" x="104.5" y="675" rx="2" transform="rotate(40, 205, 677)" opacity="0.90"></rect><rect width="53" height="4" x="695.5" y="145" rx="2" transform="rotate(40, 722, 147)" opacity="0.93"></rect><rect width="144" height="4" x="31" y="467" rx="2" transform="rotate(40, 103, 469)" opacity="0.31"></rect><rect width="396" height="4" x="335" y="307" rx="2" transform="rotate(40, 533, 309)" opacity="0.31"></rect><rect width="48" height="4" x="549" y="73" rx="2" transform="rotate(40, 573, 75)" opacity="0.35"></rect><rect width="311" height="4" x="244.5" y="561" rx="2" transform="rotate(40, 400, 563)" opacity="0.57"></rect><rect width="146" height="4" x="-18" y="118" rx="2" transform="rotate(40, 55, 120)" opacity="0.21"></rect><rect width="123" height="4" x="674.5" y="220" rx="2" transform="rotate(40, 736, 222)" opacity="0.54"></rect><rect width="55" height="4" x="605.5" y="26" rx="2" transform="rotate(40, 633, 28)" opacity="0.90"></rect><rect width="283" height="4" x="314.5" y="503" rx="2" transform="rotate(40, 456, 505)" opacity="0.31"></rect><rect width="133" height="4" x="-21.5" y="305" rx="2" transform="rotate(40, 45, 307)" opacity="0.24"></rect><rect width="57" height="4" x="309.5" y="609" rx="2" transform="rotate(40, 338, 611)" opacity="0.24"></rect><rect width="337" height="4" x="374.5" y="398" rx="2" transform="rotate(40, 543, 400)" opacity="0.72"></rect><rect width="78" height="4" x="8" y="39" rx="2" transform="rotate(40, 47, 41)" opacity="0.09"></rect><rect width="125" height="4" x="709.5" y="114" rx="2" transform="rotate(40, 772, 116)" opacity="0.30"></rect><rect width="156" height="4" x="-30" y="766" rx="2" transform="rotate(40, 48, 768)" opacity="0.29"></rect><rect width="415" height="4" x="273.5" y="100" rx="2" transform="rotate(40, 481, 102)" opacity="0.63"></rect><rect width="262" height="4" x="200" y="704" rx="2" transform="rotate(40, 331, 706)" opacity="0.28"></rect><rect width="237" height="4" x="405.5" y="485" rx="2" transform="rotate(40, 524, 487)" opacity="0.79"></rect><rect width="195" height="4" x="185.5" y="344" rx="2" transform="rotate(40, 283, 346)" opacity="0.94"></rect><rect width="229" height="4" x="642.5" y="515" rx="2" transform="rotate(40, 757, 517)" opacity="0.65"></rect><rect width="350" height="4" x="498" y="438" rx="2" transform="rotate(40, 673, 440)" opacity="0.65"></rect><rect width="216" height="4" x="171" y="458" rx="2" transform="rotate(40, 279, 460)" opacity="0.77"></rect><rect width="90" height="4" x="397" y="748" rx="2" transform="rotate(40, 442, 750)" opacity="0.44"></rect><rect width="161" height="4" x="619.5" y="651" rx="2" transform="rotate(40, 700, 653)" opacity="0.74"></rect><rect width="309" height="4" x="541.5" y="310" rx="2" transform="rotate(40, 696, 312)" opacity="0.58"></rect><rect width="312" height="4" x="568" y="568" rx="2" transform="rotate(40, 724, 570)" opacity="0.41"></rect><rect width="296" height="4" x="402" y="651" rx="2" transform="rotate(40, 550, 653)" opacity="0.15"></rect><rect width="72" height="4" x="497" y="26" rx="2" transform="rotate(40, 533, 28)" opacity="0.17"></rect><rect width="174" height="4" x="262" y="254" rx="2" transform="rotate(40, 349, 256)" opacity="0.16"></rect><rect width="42" height="4" x="19" y="233" rx="2" transform="rotate(40, 40, 235)" opacity="0.28"></rect><rect width="269" height="4" x="17.5" y="158" rx="2" transform="rotate(40, 152, 160)" opacity="0.85"></rect><rect width="270" height="4" x="-16" y="365" rx="2" transform="rotate(40, 119, 367)" opacity="0.34"></rect><rect width="214" height="4" x="-70" y="508" rx="2" transform="rotate(40, 37, 510)" opacity="0.95"></rect><rect width="277" height="4" x="622.5" y="443" rx="2" transform="rotate(40, 761, 445)" opacity="0.43"></rect><rect width="289" height="4" x="375.5" y="193" rx="2" transform="rotate(40, 520, 195)" opacity="0.30"></rect><rect width="41" height="4" x="574.5" y="471" rx="2" transform="rotate(40, 595, 473)" opacity="0.61"></rect><rect width="314" height="4" x="473" y="263" rx="2" transform="rotate(40, 630, 265)" opacity="0.23"></rect><rect width="302" height="4" x="174" y="32" rx="2" transform="rotate(40, 325, 34)" opacity="0.99"></rect><rect width="56" height="4" x="431" y="662" rx="2" transform="rotate(40, 459, 664)" opacity="0.60"></rect><rect width="125" height="4" x="245.5" y="161" rx="2" transform="rotate(40, 308, 163)" opacity="0.48"></rect><rect width="307" height="4" x="351.5" y="574" rx="2" transform="rotate(40, 505, 576)" opacity="0.18"></rect><rect width="442" height="4" x="519" y="746" rx="2" transform="rotate(40, 740, 748)" opacity="0.39"></rect><rect width="388" height="4" x="-147" y="596" rx="2" transform="rotate(40, 47, 598)" opacity="0.21"></rect><rect width="87" height="4" x="579.5" y="353" rx="2" transform="rotate(40, 623, 355)" opacity="0.48"></rect><rect width="368" height="4" x="69" y="580" rx="2" transform="rotate(40, 253, 582)" opacity="0.63"></rect><rect width="51" height="4" x="102.5" y="726" rx="2" transform="rotate(40, 128, 728)" opacity="0.41"></rect><rect width="103" height="4" x="404.5" y="237" rx="2" transform="rotate(40, 456, 239)" opacity="0.30"></rect><rect width="100" height="4" x="596" y="96" rx="2" transform="rotate(40, 646, 98)" opacity="1.00"></rect><rect width="81" height="4" x="390.5" y="33" rx="2" transform="rotate(40, 431, 35)" opacity="0.14"></rect><rect width="382" height="4" x="-52" y="62" rx="2" transform="rotate(40, 139, 64)" opacity="0.71"></rect><rect width="63" height="4" x="105.5" y="615" rx="2" transform="rotate(40, 137, 617)" opacity="0.97"></rect><rect width="231" height="4" x="454.5" y="134" rx="2" transform="rotate(40, 570, 136)" opacity="0.97"></rect><rect width="216" height="4" x="89" y="418" rx="2" transform="rotate(40, 197, 420)" opacity="0.89"></rect><rect width="253" height="4" x="-0.5" y="243" rx="2" transform="rotate(40, 126, 245)" opacity="0.35"></rect><rect width="246" height="4" x="472" y="207" rx="2" transform="rotate(40, 595, 209)" opacity="0.30"></rect><rect width="111" height="4" x="48.5" y="780" rx="2" transform="rotate(40, 104, 782)" opacity="0.74"></rect><rect width="278" height="4" x="91" y="189" rx="2" transform="rotate(40, 230, 191)" opacity="0.13"></rect></g></svg>