<?xml version="1.0" standalone="no"?><!DOCTYPE svg PUBLIC "-//W3C//DTD SVG 1.1//EN" "http://www.w3.org/Graphics/SVG/1.1/DTD/svg11.dtd"><svg t="1687343982243" class="icon" viewBox="0 0 1024 1024" version="1.1" xmlns="http://www.w3.org/2000/svg" p-id="47938" xmlns:xlink="http://www.w3.org/1999/xlink" width="200" height="200"><path d="M170.666667 128l682.666667 0q52.992 0 90.496 37.504t37.504 90.496l0 512q0 52.992-37.504 90.496t-90.496 37.504l-682.666667 0q-52.992 0-90.496-37.504t-37.504-90.496l0-512q0-52.992 37.504-90.496t90.496-37.504zM896 768l0-466.005333-357.333333 285.994667q-11.349333 9.344-26.666667 9.344t-26.666667-9.344l-357.333333-285.994667 0 466.005333q0 17.664 12.501333 30.165333t30.165333 12.501333l682.666667 0q17.664 0 30.165333-12.501333t12.501333-30.165333zM853.333333 213.333333l-682.666667 0q-6.314667 0-13.994667 2.346667l355.328 284.330667 355.328-284.330667q-7.68-2.346667-13.994667-2.346667z" fill="#ffffff" p-id="47939"></path></svg>