<?xml version="1.0" standalone="no"?><!DOCTYPE svg PUBLIC "-//W3C//DTD SVG 1.1//EN" "http://www.w3.org/Graphics/SVG/1.1/DTD/svg11.dtd"><svg class="icon" width="200px" height="200.00px" viewBox="0 0 1024 1024" version="1.1" xmlns="http://www.w3.org/2000/svg"><path fill="#6B7280" d="M502.784 75.264c-245.76 0-443.904 198.144-443.904 443.904S259.584 962.56 502.784 962.56c245.76 0 443.904-198.144 443.904-443.904s-200.192-443.392-443.904-443.392z m289.28 578.048c-6.656 13.824-18.432 20.48-31.744 20.48-4.608 0-9.216 0-13.824-2.048L484.864 552.96c-11.264-4.608-20.48-18.432-20.48-31.744v-245.76c0-18.432 15.872-34.304 34.304-34.304s34.304 15.872 34.304 34.304v225.28l241.152 109.056c17.92 6.656 24.576 25.088 17.92 43.52z"  /></svg>