<?xml version="1.0" standalone="no"?><!DOCTYPE svg PUBLIC "-//W3C//DTD SVG 1.1//EN" "http://www.w3.org/Graphics/SVG/1.1/DTD/svg11.dtd"><svg t="1687344104223" class="icon" viewBox="0 0 1025 1024" version="1.1" xmlns="http://www.w3.org/2000/svg" p-id="1441" xmlns:xlink="http://www.w3.org/1999/xlink" width="200.1953125" height="200"><path d="M758.518519 500.863022c-39.731922-7.825985-20.46796-28.895944-20.46796-28.895944s39.129924-64.413874-7.825985-110.767784c-57.791887-57.791887-198.659612 7.223986-198.659612 7.223986-53.577895 16.855967-39.731922-7.825985-31.905938-48.761905 0-48.761905-16.855967-131.235744-159.529688-82.473839C197.455614 285.949442 74.647854 457.519106 74.647854 457.519106-10.835979 571.296884 0.601999 659.188713 0.601999 659.188713c21.069959 194.44562 227.555556 247.421517 388.289242 260.063492 169.16167 13.243974 396.717225-58.393886 465.94709-205.281599C924.068195 567.082892 798.250441 509.291005 758.518519 500.863022zM401.533216 864.470312c-167.957672 7.825985-303.407407-76.453851-303.407407-188.425632 0-111.971781 135.449735-201.669606 303.407407-209.495591 167.957672-7.825985 303.407407 61.40388 303.407407 173.375661C704.940623 751.896531 568.888889 857.246326 401.533216 864.470312zM367.821282 540.594944c-168.559671 19.865961-149.295708 177.589653-149.295708 177.589653s-1.805996 49.965902 45.149912 75.249853c98.727807 53.577895 200.465608 21.069959 251.635509-45.149912C567.082892 682.666667 536.982951 521.330982 367.821282 540.594944zM325.079365 762.130511c-31.303939 3.611993-56.587889-14.447972-56.587889-40.93592 0-26.487948 22.273956-53.577895 54.179894-57.189888 36.119929-3.611993 59.597884 17.457966 59.597884 43.945914C382.269253 734.438566 356.383304 759.120517 325.079365 762.130511zM424.409171 677.850676c-10.835979 7.825985-24.079953 6.621987-29.497942-2.407995-6.019988-9.029982-3.611993-24.079953 7.223986-31.905938 12.641975-9.029982 25.283951-6.621987 31.303939 2.407995C438.857143 654.974721 435.24515 669.422693 424.409171 677.850676zM840.390359 432.837155c13.845973 0 25.283951-10.23398 27.089947-22.875955 0-1.203998 0.601999-1.805996 0.601999-3.009994 20.46796-185.415638-151.703704-153.5097-151.703704-153.5097-15.049971 0-27.691946 12.641975-27.691946 27.691946 0 15.049971 12.039976 27.691946 27.691946 27.691946 124.011758-27.089947 96.319812 96.319812 96.319812 96.319812C812.698413 420.195179 825.340388 432.837155 840.390359 432.837155zM820.524397 109.563786c-59.597884-13.845973-121.001764-1.805996-137.857731 1.203998-1.203998 0-2.407995 1.203998-3.611993 1.805996-0.601999 0-1.203998 0.601999-1.203998 0.601999-16.855967 4.815991-29.497942 20.46796-29.497942 39.129924 0 22.273956 18.059965 40.333921 40.333921 40.333921 0 0 21.671958-3.009994 36.119929-8.427984 14.447972-6.019988 137.857731-4.213992 199.261611 98.727807 33.711934 75.249853 14.447972 125.215755 12.641975 133.643739 0 0-7.825985 19.263962-7.825985 38.527925 0 22.273956 18.059965 36.119929 40.333921 36.119929 18.661964 0 34.313933-2.407995 38.527925-33.711934l0 0C1073.363904 237.187537 927.078189 134.245738 820.524397 109.563786z" fill="#ffffff" p-id="1442"></path></svg>