<?xml version="1.0" standalone="no"?><!DOCTYPE svg PUBLIC "-//W3C//DTD SVG 1.1//EN" "http://www.w3.org/Graphics/SVG/1.1/DTD/svg11.dtd"><svg class="icon" width="200px" height="200.00px" viewBox="0 0 1024 1024" version="1.1" xmlns="http://www.w3.org/2000/svg"><path fill="#6B7280" d="M974.95552 240.42496a92.09344 92.09344 0 0 0-69.24288-94.86336c-27.10528-3.22048-54.40512-4.608-81.69984-4.15744v58.1632a78.24384 78.24384 0 0 1-106.63424 69.23776 80.34304 80.34304 0 0 1-49.16224-75.47904V140.71296H355.24096v38.08256c0.70144 9.216 0.70144 18.4832 0 27.70432-4.71552 42.75712-43.06944 73.68704-85.85728 69.23264-40.68352-5.3248-70.656-40.69888-69.24288-81.70496V142.10048H130.90816a47.0528 47.0528 0 0 0-12.4672 0A94.85312 94.85312 0 0 0 49.19808 235.57632v637.71136a94.18752 94.18752 0 0 0 23.552 70.31808 94.18752 94.18752 0 0 0 67.15392 31.4624h737.41824a94.8736 94.8736 0 0 0 97.62816-101.0944V240.42496z m-60.928 216.02816v383.5904a59.57632 59.57632 0 0 1-6.23616 26.3168 28.3904 28.3904 0 0 1-27.00288 13.8496H142.67392a32.55296 32.55296 0 0 1-36.00384-37.38624V398.98624h806.656l0.70144 57.46688z m0 0"  /><path fill="#6B7280" d="M277.69344 238.34624a47.04256 47.04256 0 0 0 33.14688-15.01184 47.04768 47.04768 0 0 0 12.55424-34.1504V96.39936a49.19296 49.19296 0 0 0-9.00096-33.93024 44.31872 44.31872 0 0 0-50.54976-11.76576 46.3872 46.3872 0 0 0-32.54272 45.0048v94.17216a47.77984 47.77984 0 0 0 46.39232 48.46592z m465.3056 0a47.06304 47.06304 0 0 0 33.14688-15.01184 47.04256 47.04256 0 0 0 12.54912-34.1504V96.39936a49.18784 49.18784 0 0 0-12.46208-33.93024 44.31872 44.31872 0 0 0-50.54976-11.76576 46.3872 46.3872 0 0 0-29.0816 44.3136V189.184a47.82592 47.82592 0 0 0 13.0048 34.2016 47.83104 47.83104 0 0 0 33.39264 14.96064z m-14.5408 481.92h121.86112v94.17216h-121.86112v-94.17216z m-186.2656 0h121.86624v94.17216h-121.86624v-94.17216z m-186.25536 94.16704h122.55744v-95.55968H355.93728v95.55968z m-186.25536-94.16704h121.86624v94.17216H169.68192v-94.17216z m558.77632-128.79872h121.86112v94.17216h-121.86112v-94.17216z m-186.2656 0.69632h121.86624v94.17216h-121.86624v-94.17216z m-186.25536 0H477.7984v94.17216H355.93728v-94.17216z m-63.70304 0H170.368v94.17216h121.86624v-94.17216z m435.5328-128.08704h121.86624v94.16192h-121.86624V464.0768z m-185.5744 0h121.86624v94.16192h-121.86624V464.0768z m-63.69792 0H355.93728v94.16192h122.55744V464.0768z m0 0"  /></svg>