<?xml version="1.0" standalone="no"?><!DOCTYPE svg PUBLIC "-//W3C//DTD SVG 1.1//EN" "http://www.w3.org/Graphics/SVG/1.1/DTD/svg11.dtd"><svg class="icon" width="200px" height="200.00px" viewBox="0 0 1024 1024" version="1.1" xmlns="http://www.w3.org/2000/svg"><path fill="#6B7280" d="M890.127 145.672h-43.389V132.78c0-38.644-31.466-70.234-69.922-70.234h-1.032c-38.458 0-69.922 31.59-69.922 70.234v12.892h-386.7V132.78c0-38.644-31.465-70.234-69.922-70.234h-1.063c-38.457 0-69.923 31.59-69.923 70.234v12.892h-43.296c-38.458 0-69.923 31.622-69.923 70.207v671.446c0 38.644 31.466 70.236 69.923 70.236h755.17c38.458 0 69.922-31.592 69.922-70.236V215.879c0-38.585-31.464-70.207-69.923-70.207zM733.83 132.78c0-23.222 18.793-42.139 41.954-42.139h1.032c23.13 0 41.954 18.918 41.954 42.139v124.927c0 23.224-18.824 42.14-41.954 42.14h-1.032c-23.161 0-41.954-18.916-41.954-42.14V132.779z m-527.607 0c0-23.222 18.793-42.139 41.955-42.139h1.063c23.098 0 41.954 18.918 41.954 42.139v124.927c0 23.224-18.856 42.14-41.954 42.14h-1.063c-23.162 0-41.955-18.916-41.955-42.14V132.779z m683.904 768.626H134.958c-7.585 0-13.985-6.525-13.985-14.08V393.649h783.138v493.676c0 7.555-6.399 14.08-13.984 14.08z"  /><path fill="#6B7280" d="M223.755 494.2H352.78v63.488H223.755V494.2zM449.035 494.2h128v63.488h-128V494.2zM673.291 494.2h125.952v63.488H673.291V494.2zM223.755 623.224H352.78v62.464H223.755v-62.464zM449.035 623.224h128v62.464h-128v-62.464zM673.291 623.224h125.952v62.464H673.291v-62.464zM223.755 749.176H352.78v65.536H223.755v-65.536zM449.035 749.176h128v65.536h-128v-65.536zM673.291 749.176h125.952v65.536H673.291v-65.536z"  /></svg>