<svg xmlns="http://www.w3.org/2000/svg" xmlns:xlink="http://www.w3.org/1999/xlink" width="955" zoomAndPan="magnify" viewBox="0 0 716.25 361.499994" height="482" preserveAspectRatio="xMidYMid meet" version="1.0"><defs><g/><clipPath id="56d65731b8"><path d="M 187 229 L 248 229 L 248 282 L 187 282 Z M 187 229 " clip-rule="nonzero"/></clipPath><clipPath id="632ad999bf"><path d="M 38.300781 170.800781 L 190.480469 37.628906 L 324.144531 190.367188 L 171.96875 323.542969 Z M 38.300781 170.800781 " clip-rule="nonzero"/></clipPath><clipPath id="aa7cd82f16"><path d="M 171.730469 323.269531 L 323.90625 190.09375 L 161.140625 4.101562 L 8.960938 137.273438 Z M 171.730469 323.269531 " clip-rule="nonzero"/></clipPath><clipPath id="fba434e75d"><path d="M 125 234 L 178 234 L 178 282 L 125 282 Z M 125 234 " clip-rule="nonzero"/></clipPath><clipPath id="fa1af31b95"><path d="M 38.300781 170.800781 L 190.480469 37.628906 L 324.144531 190.367188 L 171.96875 323.542969 Z M 38.300781 170.800781 " clip-rule="nonzero"/></clipPath><clipPath id="5792af6cba"><path d="M 171.730469 323.269531 L 323.90625 190.09375 L 161.140625 4.101562 L 8.960938 137.273438 Z M 171.730469 323.269531 " clip-rule="nonzero"/></clipPath><clipPath id="97f941adad"><path d="M 84 200 L 133 200 L 133 249 L 84 249 Z M 84 200 " clip-rule="nonzero"/></clipPath><clipPath id="ef439d9e96"><path d="M 38.300781 170.800781 L 190.480469 37.628906 L 324.144531 190.367188 L 171.96875 323.542969 Z M 38.300781 170.800781 " clip-rule="nonzero"/></clipPath><clipPath id="4c133be020"><path d="M 171.730469 323.269531 L 323.90625 190.09375 L 161.140625 4.101562 L 8.960938 137.273438 Z M 171.730469 323.269531 " clip-rule="nonzero"/></clipPath><clipPath id="8d7e062da1"><path d="M 80 143 L 121 143 L 121 179 L 80 179 Z M 80 143 " clip-rule="nonzero"/></clipPath><clipPath id="4efad3b4f3"><path d="M 38.300781 170.800781 L 190.480469 37.628906 L 324.144531 190.367188 L 171.96875 323.542969 Z M 38.300781 170.800781 " clip-rule="nonzero"/></clipPath><clipPath id="2e66f828f7"><path d="M 171.730469 323.269531 L 323.90625 190.09375 L 161.140625 4.101562 L 8.960938 137.273438 Z M 171.730469 323.269531 " clip-rule="nonzero"/></clipPath><clipPath id="4af20c308d"><path d="M 111 91 L 149 91 L 149 134 L 111 134 Z M 111 91 " clip-rule="nonzero"/></clipPath><clipPath id="5a3209c41b"><path d="M 38.300781 170.800781 L 190.480469 37.628906 L 324.144531 190.367188 L 171.96875 323.542969 Z M 38.300781 170.800781 " clip-rule="nonzero"/></clipPath><clipPath id="5835d0cd1b"><path d="M 171.730469 323.269531 L 323.90625 190.09375 L 161.140625 4.101562 L 8.960938 137.273438 Z M 171.730469 323.269531 " clip-rule="nonzero"/></clipPath><clipPath id="6228f6d291"><path d="M 181 79 L 199 79 L 199 116 L 181 116 Z M 181 79 " clip-rule="nonzero"/></clipPath><clipPath id="d1efca7c87"><path d="M 38.300781 170.800781 L 190.480469 37.628906 L 324.144531 190.367188 L 171.96875 323.542969 Z M 38.300781 170.800781 " clip-rule="nonzero"/></clipPath><clipPath id="bcbb8a256e"><path d="M 171.730469 323.269531 L 323.90625 190.09375 L 161.140625 4.101562 L 8.960938 137.273438 Z M 171.730469 323.269531 " clip-rule="nonzero"/></clipPath><clipPath id="86cb661f8f"><path d="M 227 108 L 257 108 L 257 138 L 227 138 Z M 227 108 " clip-rule="nonzero"/></clipPath><clipPath id="b13ecff2a8"><path d="M 38.300781 170.800781 L 190.480469 37.628906 L 324.144531 190.367188 L 171.96875 323.542969 Z M 38.300781 170.800781 " clip-rule="nonzero"/></clipPath><clipPath id="e690d0f751"><path d="M 171.730469 323.269531 L 323.90625 190.09375 L 161.140625 4.101562 L 8.960938 137.273438 Z M 171.730469 323.269531 " clip-rule="nonzero"/></clipPath></defs><g clip-path="url(#56d65731b8)"><g clip-path="url(#632ad999bf)"><g clip-path="url(#aa7cd82f16)"><path fill="#d9d9d9" d="M 189.289062 245.335938 L 192.207031 244.898438 L 195.582031 244.242188 C 195.699219 244.210938 195.820312 244.179688 195.941406 244.148438 C 196.234375 244.074219 196.527344 244 196.828125 243.929688 L 198.621094 243.476562 C 198.839844 243.417969 199.0625 243.34375 199.289062 243.273438 C 199.5625 243.191406 199.832031 243.109375 200.105469 243.027344 C 200.386719 242.941406 200.671875 242.855469 200.953125 242.769531 C 201.1875 242.703125 201.421875 242.632812 201.660156 242.558594 L 203.714844 241.824219 L 204.105469 241.6875 C 204.507812 241.554688 205.242188 241.25 205.949219 240.949219 C 206.425781 240.753906 206.894531 240.554688 207.367188 240.363281 C 211.097656 238.777344 215.347656 236.359375 219.070312 233.710938 L 221.542969 231.855469 C 221.652344 231.773438 221.898438 231.570312 222.117188 231.382812 C 222.390625 231.152344 222.652344 230.933594 222.898438 230.730469 L 224.523438 229.382812 L 247.390625 256.882812 L 245.6875 258.300781 L 245.476562 258.476562 C 245.378906 258.554688 245.277344 258.640625 245.171875 258.734375 C 244.675781 259.148438 243.929688 259.777344 243.003906 260.472656 L 240.351562 262.457031 L 240.050781 262.679688 C 236.613281 265.144531 229.582031 269.8125 221.171875 273.359375 L 220.898438 273.472656 C 220.527344 273.621094 220.15625 273.777344 219.785156 273.933594 C 218.632812 274.414062 217.210938 275.011719 215.59375 275.558594 L 213.257812 276.390625 C 212.472656 276.65625 211.773438 276.863281 211.207031 277.035156 C 211.015625 277.089844 210.820312 277.152344 210.628906 277.207031 L 210.386719 277.28125 C 210.183594 277.34375 209.988281 277.402344 209.785156 277.464844 C 209.25 277.628906 208.585938 277.832031 207.839844 278.035156 L 205.257812 278.683594 C 205.117188 278.714844 204.976562 278.753906 204.835938 278.789062 C 204.277344 278.933594 203.511719 279.128906 202.609375 279.304688 L 199.085938 280.007812 L 194.144531 280.769531 L 191.101562 281.09375 L 187.492188 245.515625 L 189.289062 245.335938 " fill-opacity="1" fill-rule="nonzero"/></g></g></g><g clip-path="url(#fba434e75d)"><g clip-path="url(#fa1af31b95)"><g clip-path="url(#5792af6cba)"><path fill="#d9d9d9" d="M 146.550781 235.949219 L 149.855469 237.894531 C 151.601562 238.835938 155.738281 240.9375 160.527344 242.5 L 160.648438 242.539062 C 164.152344 243.710938 168.417969 244.699219 172.066406 245.1875 L 172.496094 245.25 C 173.386719 245.390625 174.257812 245.464844 175.179688 245.542969 C 175.621094 245.585938 176.03125 245.621094 176.402344 245.660156 C 176.53125 245.671875 176.652344 245.679688 176.757812 245.691406 L 177.3125 245.714844 L 175.800781 281.4375 L 175.449219 281.421875 C 174.597656 281.398438 173.800781 281.324219 172.992188 281.25 L 172.875 281.238281 C 172.644531 281.214844 172.386719 281.195312 172.109375 281.171875 C 170.9375 281.066406 169.191406 280.914062 167.152344 280.601562 C 163.660156 280.128906 156.894531 278.972656 149.394531 276.472656 C 141.902344 274.023438 135.648438 270.863281 132.582031 269.195312 L 128.695312 266.945312 L 128.304688 266.710938 C 127.960938 266.5 127.640625 266.292969 127.339844 266.09375 L 125.523438 264.917969 L 144.957031 234.917969 L 146.550781 235.949219 " fill-opacity="1" fill-rule="nonzero"/></g></g></g><g clip-path="url(#97f941adad)"><g clip-path="url(#ef439d9e96)"><g clip-path="url(#4c133be020)"><path fill="#d9d9d9" d="M 102.367188 243.859375 L 101.964844 243.363281 C 98.449219 238.859375 95.675781 234.785156 93.480469 230.910156 C 90.144531 225.109375 87.949219 219.90625 86.933594 217.316406 L 86.90625 217.25 C 86.40625 215.957031 86 214.808594 85.707031 213.976562 C 85.601562 213.675781 85.503906 213.402344 85.417969 213.160156 C 85.09375 212.300781 84.882812 211.59375 84.769531 211.210938 L 84.585938 210.609375 L 118.746094 200.296875 L 118.804688 200.277344 L 118.808594 200.277344 L 118.894531 200.5625 C 118.933594 200.683594 118.972656 200.816406 119.015625 200.957031 C 119.136719 201.292969 119.273438 201.667969 119.417969 202.082031 C 119.667969 202.796875 119.929688 203.53125 120.234375 204.320312 C 121.332031 207.113281 122.921875 210.410156 124.496094 213.140625 L 124.566406 213.269531 C 125.855469 215.546875 127.625 218.125 129.964844 221.140625 C 130.3125 221.558594 130.636719 221.953125 130.945312 222.320312 C 131.304688 222.757812 131.75 223.296875 131.972656 223.554688 L 132.90625 224.570312 L 106.617188 248.785156 L 105.378906 247.433594 C 104.726562 246.710938 104.082031 245.925781 103.398438 245.101562 C 103.082031 244.714844 102.734375 244.300781 102.367188 243.859375 " fill-opacity="1" fill-rule="nonzero"/></g></g></g><g clip-path="url(#8d7e062da1)"><g clip-path="url(#4efad3b4f3)"><g clip-path="url(#2e66f828f7)"><path fill="#d9d9d9" d="M 119.535156 158.410156 C 119.375 158.886719 119.199219 159.40625 119.007812 159.953125 L 118.914062 160.210938 C 118.804688 160.507812 118.554688 161.378906 118.375 162.019531 C 118.238281 162.492188 118.097656 162.980469 117.953125 163.472656 L 117.894531 163.660156 C 117.851562 163.835938 117.8125 164.015625 117.769531 164.195312 C 117.703125 164.472656 117.640625 164.757812 117.570312 165.039062 C 117.492188 165.386719 117.402344 165.730469 117.320312 166.078125 C 117.265625 166.304688 117.207031 166.527344 117.167969 166.71875 L 117.15625 166.769531 C 117.082031 167.195312 117 167.617188 116.921875 168.039062 C 116.714844 169.113281 116.523438 170.128906 116.441406 170.789062 L 116.410156 171.085938 C 116.363281 171.433594 116.3125 171.773438 116.265625 172.113281 C 116.226562 172.40625 116.183594 172.691406 116.152344 172.972656 L 115.980469 174.84375 C 115.957031 175.125 115.929688 175.398438 115.90625 175.667969 C 115.894531 175.804688 115.878906 175.933594 115.867188 176.0625 L 115.765625 178.527344 L 80.042969 176.988281 L 80.164062 174.175781 C 80.199219 173.449219 80.261719 172.808594 80.308594 172.292969 C 80.324219 172.128906 80.339844 171.960938 80.355469 171.785156 L 80.46875 170.515625 L 80.597656 169.105469 C 80.675781 168.453125 80.765625 167.773438 80.863281 167.082031 C 80.894531 166.875 80.921875 166.667969 80.953125 166.457031 C 81.175781 164.585938 81.503906 162.867188 81.792969 161.347656 C 81.859375 160.992188 81.925781 160.632812 81.992188 160.277344 C 82.191406 159.195312 82.421875 158.257812 82.585938 157.574219 C 82.636719 157.375 82.6875 157.175781 82.730469 156.976562 L 82.820312 156.597656 C 82.863281 156.414062 82.90625 156.234375 82.949219 156.054688 C 83.117188 155.324219 83.347656 154.335938 83.695312 153.214844 C 83.796875 152.855469 83.898438 152.503906 83.996094 152.160156 C 84.363281 150.882812 84.777344 149.441406 85.320312 147.945312 C 85.4375 147.609375 85.542969 147.289062 85.644531 146.992188 C 85.933594 146.140625 86.253906 145.1875 86.667969 144.183594 L 87.070312 143.164062 L 120.292969 156.40625 L 119.765625 157.726562 C 119.695312 157.933594 119.617188 158.164062 119.535156 158.410156 " fill-opacity="1" fill-rule="nonzero"/></g></g></g><g clip-path="url(#4af20c308d)"><g clip-path="url(#5a3209c41b)"><g clip-path="url(#5835d0cd1b)"><path fill="#d9d9d9" d="M 135.550781 133.519531 L 111.324219 107.203125 L 113.714844 105 C 113.972656 104.761719 114.222656 104.535156 114.46875 104.320312 C 115.039062 103.824219 115.578125 103.378906 116.074219 102.972656 C 116.328125 102.761719 116.597656 102.542969 116.863281 102.316406 L 117.390625 101.878906 C 117.824219 101.511719 118.460938 100.972656 119.285156 100.371094 L 121.277344 98.878906 C 121.726562 98.539062 122.175781 98.203125 122.632812 97.875 L 124.851562 96.375 C 125.898438 95.664062 127.078125 94.867188 128.375 94.113281 L 130.1875 93.019531 C 131.082031 92.472656 131.777344 92.097656 132.210938 91.882812 L 148.355469 123.796875 C 148.746094 123.597656 148.910156 123.5 148.933594 123.484375 L 146.691406 124.835938 L 146.34375 125.039062 C 146.089844 125.1875 145.402344 125.652344 144.898438 125.996094 L 143.304688 127.074219 C 143.128906 127.199219 142.960938 127.324219 142.796875 127.449219 C 142.589844 127.605469 142.378906 127.761719 142.171875 127.917969 L 140.632812 129.070312 L 140.480469 129.195312 C 140.269531 129.375 140.0625 129.550781 139.847656 129.722656 C 139.492188 130.023438 139.136719 130.316406 138.796875 130.59375 C 138.515625 130.824219 138.132812 131.144531 138.027344 131.234375 L 135.550781 133.519531 " fill-opacity="1" fill-rule="nonzero"/></g></g></g><g clip-path="url(#6228f6d291)"><g clip-path="url(#d1efca7c87)"><g clip-path="url(#bcbb8a256e)"><path fill="#d9d9d9" d="M 181.832031 97.199219 L 181.535156 79.320312 C 182.097656 79.3125 183.257812 79.3125 184.789062 79.390625 L 186.699219 79.472656 C 187.773438 79.507812 188.6875 79.597656 189.367188 79.664062 C 189.535156 79.683594 189.710938 79.699219 189.878906 79.714844 L 190.292969 79.75 C 190.5 79.769531 190.714844 79.789062 190.921875 79.808594 C 191.597656 79.867188 192.433594 79.933594 193.421875 80.074219 L 197.078125 80.582031 L 198.453125 80.824219 L 192.839844 110.78125 L 192.109375 115.992188 L 191.871094 115.957031 L 191.871094 115.964844 L 188.5625 115.496094 C 188.339844 115.46875 188.113281 115.453125 187.882812 115.4375 C 187.570312 115.40625 187.253906 115.378906 186.9375 115.347656 C 186.589844 115.320312 186.242188 115.285156 185.898438 115.25 C 185.757812 115.238281 185.621094 115.222656 185.484375 115.210938 L 182.921875 115.097656 C 182.453125 115.078125 182.140625 115.078125 182.140625 115.078125 L 181.832031 97.199219 " fill-opacity="1" fill-rule="nonzero"/></g></g></g><g clip-path="url(#86cb661f8f)"><g clip-path="url(#b13ecff2a8)"><g clip-path="url(#e690d0f751)"><path fill="#d9d9d9" d="M 252.839844 109.210938 C 253.554688 109.894531 254.140625 110.539062 254.585938 111.023438 L 256.894531 113.527344 L 230.597656 137.742188 L 228.683594 135.660156 C 228.523438 135.492188 228.371094 135.320312 228.222656 135.15625 C 228.152344 135.082031 228.082031 135.003906 228.011719 134.929688 L 227.285156 134.214844 L 252.320312 108.703125 L 252.839844 109.210938 " fill-opacity="1" fill-rule="nonzero"/></g></g></g><g fill="#d9d9d9" fill-opacity="1"><g transform="translate(277.932558, 257.036589)"><g><path d="M 7.78125 1.328125 C 6.300781 1.328125 5.5625 0.617188 5.5625 -0.796875 L 7.78125 -19.265625 C 8.007812 -20.554688 8.773438 -21.265625 10.078125 -21.390625 C 19.265625 -22.328125 25.328125 -23.78125 28.265625 -25.75 C 31.210938 -27.726562 32.6875 -31.660156 32.6875 -37.546875 C 32.6875 -43.441406 31.1875 -51.113281 28.1875 -60.5625 C 25.1875 -70.019531 23.242188 -76.3125 22.359375 -79.4375 C 19.523438 -89.445312 18.109375 -97.648438 18.109375 -104.046875 C 18.109375 -110.441406 19.140625 -115.90625 21.203125 -120.4375 C 23.265625 -124.976562 26.210938 -128.601562 30.046875 -131.3125 C 37.460938 -136.488281 47.445312 -139.078125 60 -139.078125 C 61.59375 -139.078125 62.390625 -138.34375 62.390625 -136.875 L 60 -118.578125 C 59.757812 -117.109375 59.023438 -116.316406 57.796875 -116.203125 C 46.359375 -115.429688 40.640625 -112.039062 40.640625 -106.03125 C 40.640625 -100.5 43.070312 -89.617188 47.9375 -73.390625 C 52.800781 -57.160156 55.234375 -45.539062 55.234375 -38.53125 C 55.234375 -11.957031 39.414062 1.328125 7.78125 1.328125 Z M 7.78125 1.328125 "/></g></g></g><g fill="#d9d9d9" fill-opacity="1"><g transform="translate(341.018413, 257.036589)"><g><path d="M 66.09375 -60.4375 L 38.609375 -59.375 L 34.46875 -23.15625 L 68.3125 -24.296875 C 69.84375 -24.242188 70.609375 -23.476562 70.609375 -22 L 68.3125 -3.71875 C 68.1875 -2.476562 67.414062 -1.707031 66 -1.40625 L 11.65625 0.359375 C 10.363281 0.359375 9.71875 -0.203125 9.71875 -1.328125 L 25 -135.015625 C 25.238281 -136.253906 26.003906 -136.929688 27.296875 -137.046875 L 75.734375 -138.734375 C 77.203125 -138.554688 77.9375 -137.757812 77.9375 -136.34375 L 75.734375 -118.046875 C 75.554688 -116.578125 74.789062 -115.785156 73.4375 -115.671875 L 44.984375 -114.875 L 41.171875 -82 L 68.390625 -82.96875 C 69.921875 -82.914062 70.6875 -82.148438 70.6875 -80.671875 L 68.390625 -62.65625 C 68.160156 -61.300781 67.394531 -60.5625 66.09375 -60.4375 Z M 66.09375 -60.4375 "/></g></g></g><g fill="#d9d9d9" fill-opacity="1"><g transform="translate(420.980175, 257.036589)"><g><path d="M 25 -1.859375 L 14.75 -134.9375 C 14.75 -136.289062 15.546875 -136.992188 17.140625 -137.046875 L 35.515625 -137.671875 C 36.816406 -137.671875 37.46875 -137.109375 37.46875 -135.984375 L 41.625 -36.3125 L 65.03125 -134.9375 C 65.207031 -135.695312 65.425781 -136.222656 65.6875 -136.515625 C 65.957031 -136.816406 66.445312 -136.992188 67.15625 -137.046875 L 85.453125 -137.765625 C 86.742188 -137.765625 87.390625 -137.203125 87.390625 -136.078125 L 48.59375 -2.46875 C 48.1875 -1.0625 47.484375 -0.359375 46.484375 -0.359375 L 26.953125 0.359375 C 25.773438 0.296875 25.125 -0.441406 25 -1.859375 Z M 25 -1.859375 "/></g></g></g><g fill="#d9d9d9" fill-opacity="1"><g transform="translate(502.09056, 257.036589)"><g><path d="M 66.09375 -60.4375 L 38.609375 -59.375 L 34.46875 -23.15625 L 68.3125 -24.296875 C 69.84375 -24.242188 70.609375 -23.476562 70.609375 -22 L 68.3125 -3.71875 C 68.1875 -2.476562 67.414062 -1.707031 66 -1.40625 L 11.65625 0.359375 C 10.363281 0.359375 9.71875 -0.203125 9.71875 -1.328125 L 25 -135.015625 C 25.238281 -136.253906 26.003906 -136.929688 27.296875 -137.046875 L 75.734375 -138.734375 C 77.203125 -138.554688 77.9375 -137.757812 77.9375 -136.34375 L 75.734375 -118.046875 C 75.554688 -116.578125 74.789062 -115.785156 73.4375 -115.671875 L 44.984375 -114.875 L 41.171875 -82 L 68.390625 -82.96875 C 69.921875 -82.914062 70.6875 -82.148438 70.6875 -80.671875 L 68.390625 -62.65625 C 68.160156 -61.300781 67.394531 -60.5625 66.09375 -60.4375 Z M 66.09375 -60.4375 "/></g></g></g><g fill="#d9d9d9" fill-opacity="1"><g transform="translate(582.052323, 257.036589)"><g><path d="M 94.015625 -135.90625 L 78.828125 -2.828125 C 78.585938 -1.472656 77.816406 -0.738281 76.515625 -0.625 L 59.03125 0.359375 C 58.03125 0.359375 57.441406 -0.203125 57.265625 -1.328125 L 38.703125 -95.703125 L 32.171875 -2.46875 C 32.109375 -1.0625 31.335938 -0.328125 29.859375 -0.265625 L 11.65625 0.359375 C 10.363281 0.359375 9.71875 -0.203125 9.71875 -1.328125 L 25 -135.015625 C 25.238281 -136.253906 26.003906 -136.929688 27.296875 -137.046875 L 45.25 -138.03125 C 46.070312 -138.03125 46.613281 -137.863281 46.875 -137.53125 C 47.144531 -137.207031 47.367188 -136.664062 47.546875 -135.90625 L 65.484375 -46.75 L 71.65625 -135.015625 C 71.71875 -136.316406 72.515625 -136.992188 74.046875 -137.046875 L 91.640625 -138.03125 C 93.222656 -138.03125 94.015625 -137.320312 94.015625 -135.90625 Z M 94.015625 -135.90625 "/></g></g></g></svg>