<svg xmlns="http://www.w3.org/2000/svg" version="1.1" xmlns:xlink="http://www.w3.org/1999/xlink" xmlns:svgjs="http://svgjs.dev/svgjs" viewBox="0 0 1422 800"><defs><linearGradient x1="50%" y1="0%" x2="50%" y2="100%" id="ssscribble-grad"><stop stop-color="hsl(206, 75%, 49%)" stop-opacity="1" offset="0%"></stop><stop stop-color="hsl(331, 90%, 56%)" stop-opacity="1" offset="100%"></stop></linearGradient></defs><g fill="none" stroke-width="1.5" stroke="url(#ssscribble-grad)" stroke-linecap="round"><path d="M1214.9 626.83C1050.55 659.69 959.48 692.84 981.47 715.58 1100.84 725.32 1246.71 702.98 1346.74 637.87 1363.44 561.67 1287.24 477.69 1154.71 439.64 1005.66 496.17 887.6 652.22 822.11 855.58 811.99 981.85 844.37 949.91 895.06 768.06 958.56 609.54 1007.69 633.48 1034.69 858.01 1050.9 1061.47 1046.01 1025.35 1026.46 781.7 1002.13 644.66 971.59 800.88 938.73 1058.51 905.87 1061.38 872.24 808.67 834.6 639.33 792.18 756 737.29 993.29 664.13 1062.02 580.18 888.5 476.94 653.82 362.79 569.93 221.68 773.06 210.91 828.48 365.29 577.07 463.62 441.98 510.34 386.09 469.56 387.22 345.44 430.1 180.87 475.04 48.81 499.19 14.14 523.16 98.55 518.75 262.9 485.89 411.72 453.04 465.88 393.29 406.31 307.36 266.36 221.23 126.46 116.52 53.34 16.69 72.81 -41.4 178 -39.65 322.79 44.76 465.4 166.38 562.45 277.51 601.36 283.55 584.52 147.01 533 -72.22 472.84 -219.46 408.31 -169.82 365.23 35.36 347.46 184.83 343.58 92.06 359.58 -163.91 387.15 -293.31 419.66 -136.72 454.52 109.35 487.38 106.57 520.24 -151.03 549.55 -300.66 579.01 -150.99 613.41 105.35 657.19 160.22 718.02 -19.13 792.74 -219.59 889.94 -214.09 1005.12 -21.36 1115.92 194.71 1214.62 265.63 1274.52 182.43 1278.69 22.14 1220.6 -86.73 1112.21 -92.61 1001.63 -3.92 925.91 134.16 930.53 267.31 1027.74 389.37 1186.34 471.49 1338.97 523.72 1411.22 562.96 1363.72 593.97 1214.9 626.83Q1214.9 626.83 1214.9 626.83" opacity="0.99"></path><path d="M1180.9 481.13C1026.73 511.64 931.49 515.58 932.12 493.27 1024.14 470.75 1157.17 427.98 1271.46 383.68 1329.62 373.7 1306.36 410.03 1217.07 517.99 1087.08 672.68 955.27 840.24 850.37 939.46 769.73 837.17 815.03 630.36 865.69 934.93 906.47 987.58 902.43 700.58 863.31 1024.51 832.8 1038.59 790.43 814.77 735.75 619.47 678.95 660.07 607.08 873.79 521.6 1024.48 437.28 969.23 348.59 758.75 269.12 573.63 215.93 535.81 197.16 646.58 225.29 797.65 290.2 900.8 385.83 889.95 484.05 791.03 541.56 640.02 537.46 498.45 456.93 395.68 320.27 325.04 169.87 290.52 66.08 271.52 53.67 263.63 142.73 248.91 296.9 218.4 437.59 187.89 499.85 143.03 463.08 93.37 346.49 54.83 210.7 33.83 114.11 51.57 86.99 101.44 141.76 192.76 252.85 296.75 390.66 348.67 515.1 315.74 602.43 172.62 646.44 -18.43 648.29 -165.41 624.01 -159.4 578.12 -6.08 533.25 177.04 500.6 209.97 464.58 -78.59 481.47 45.73 522.05 140.57 552.56 -97.31 592.01 -263.22 641.69 -169.91 694.33 74.62 761.74 209.36 844.69 120.43 930.22 -89.55 1025.34 -206.63 1118.26 -137.55 1189.57 62.14 1231.53 245.85 1227.52 314.38 1180.18 255.17 1091.92 131.41 985.88 23.75 906.57 -37.17 879.15 -23.26 928.65 39.59 1047.6 136.77 1200.76 235.05 1329.13 315.12 1377.66 394.97 1321.59 450.61 1180.9 481.13Q1180.9 481.13 1180.9 481.13" opacity="0.20"></path><path d="M1146.9 215.35C1003.27 243.51 906.04 257.47 888.14 264.95 952.49 281.89 1065.78 311.36 1181.79 371.43 1268.06 460.65 1291.84 587.78 1252.59 733.85 1162.63 847.16 1046.55 896.45 931.36 842.75 828.52 714.52 755.49 569.16 712.46 510.32 695.53 601.35 697.04 802.95 705.5 979.45 729.49 904.83 731.91 682.17 697.53 990.51 669.36 1014.2 626.8 821.61 571.95 614.34 518.01 584.26 454.58 744.21 387.88 931.88 330.6 991.93 282.71 873.61 256.22 675.9 255.84 519.21 288.44 490.44 354.35 570.89 473.97 761.57 561.35 776.16 429.92 630.65 293.26 516.99 163.94 423.21 88.72 354.66 95.75 291.66 187.27 247.79 330.9 219.63 462.97 191.46 531.17 180.33 515.17 190.2 423.83 205.64 300.44 248.18 192.7 313.03 129.6 366.7 135.04 406.36 200.55 395.48 308.99 315.34 431.19 168.08 541.4 -6.09 630.04 -123.45 684.41 -128.09 708.75 -0.75 707.08 167.63 691.27 260.7 673.2 180.04 640.33 -116.25 634.37 104.72 668.81 174.57 696.98 -43.15 739.43 -218.66 794.75 -179.36 850.03 31.67 917.01 216.87 990.83 227.6 1057.71 71.76 1119.9 -104.58 1164.99 -166.31 1184.06 -78.15 1170.12 100.59 1118.4 265.75 1045.11 356.37 956.3 347.52 877.19 277.62 841.01 174.96 860.83 94.21 944.57 53.81 1072.96 42.55 1212.38 64.32 1314.59 100.5 1341.46 146.14 1278.97 187.18 1146.9 215.35Q1146.9 215.35 1146.9 215.35" opacity="0.64"></path><path d="M1112.9 222.8C980.16 248.62 883.03 289.14 849.8 347.03 887.6 409.62 976.49 495.09 1083.19 599.84 1211.97 742.21 1169.49 789.14 1033.1 623.28 927.2 512.76 831.93 468.75 755.53 541.69 695.08 708.55 654.73 890.85 628.73 972.4 608.52 801.94 573.74 667.3 539.73 956.51 513.91 988.13 479.87 827.95 440.57 622.02 403.88 533.7 367.31 622.28 337.58 799.73 318.83 938.81 316.66 937.61 337.31 810.09 373.92 626.83 432.12 486.59 504.19 437.68 567.44 481.47 615.41 577.64 628.78 674.25 594.21 753.83 512.3 784.46 393.97 773.33 268.35 732.37 164.76 675.29 117 620.03 140.27 559.48 232.16 513.58 364.9 487.76 523.87 459.68 444.13 480.9 284.66 482.18 199.13 448.56 163.51 375.41 181.32 256.04 245.31 119.64 340.02 -13.59 444.17 -91.22 548.69 -76.17 635.57 33.44 699.85 189.82 744.94 290.46 770.59 268.53 784.35 110.54 787.55 -85.82 789.44 -189.12 796.14 -110.82 800.7 85.11 814.73 240.1 840.55 208.56 866.37 11.29 902.75 -167.33 946.89 -176.43 988.88 -14.43 1033.96 187.25 1075.51 283.18 1106.49 220.58 1123.36 61.44 1118.06 -78.54 1093.58 -124.61 1043.76 -50 973.09 94.35 902.78 255.54 838.68 369.65 801.58 418.88 810.64 408.51 869.42 361.59 973.88 308.69 1099.97 248.68 1219.27 210.18 1294.89 196.29 1302.63 187.09 1235.87 196.98 1112.9 222.8Q1112.9 222.8 1112.9 222.8" opacity="0.55"></path><path d="M1079.48 492.35C957.9 515.82 862.69 557.39 817.29 612.35 830.65 662.95 892.7 716.54 981.41 758.42 1079.52 775.76 1157.75 758.73 1201.4 697.39 1208.7 612.74 1177.18 512.68 1117.71 436.45 1037.18 429.51 950.11 506.72 867.44 659.06 787.48 821.96 720.82 926.46 668.02 907.47 622.21 775.51 586.57 602.89 557.67 507.08 531.23 565.31 507.06 745.67 483.59 922.4 460.12 960.2 438.46 832.38 420.63 639.57 405.26 510.45 398.2 524.32 403.34 653.48 415.46 817.33 443.46 911.16 487.25 893.06 533.74 776.77 587.12 619.66 636.88 484.84 665.58 402.86 669.28 390.66 637.54 427.28 569.45 499.17 470.16 570.83 354.84 623.33 211.23 674.09 232.67 658.98 399.48 625.89 512.78 602.42 586.21 575.81 603.41 541.55 562.17 500.93 480.32 441.94 383.72 358.64 290.18 265.47 226.99 155.16 204.2 47.08 220.62 -25.69 273.17 -47.2 348.15 4.01 438.63 108.06 528.85 237.35 609.4 329.19 682.85 322.85 740.76 207.98 784.63 26.92 820.29 -119.44 847.46 -146.67 870.44 -26.61 890.89 157.14 911.91 280.2 935.38 242.4 958.85 65.67 983.66 -109.92 1007.48 -159.09 1028.77 -54.22 1044.29 131.74 1049.31 280.9 1046.12 317.1 1026.87 233.66 989.6 95.19 945.22 -32.69 888.69 -82.08 828.98 -44.37 784.77 62.61 760.04 196.37 768.07 317.19 815.3 414.72 899.54 470.4 1010.28 493.74 1171.69 487.09 1227.12 466.75 1079.48 492.35Q1079.48 492.35 1079.48 492.35" opacity="0.62"></path><path d="M1044.84 625.28C934.8 646.4 843.8 663.38 790.39 672.22 783.43 675.91 819.31 662.62 884.81 626.67 969.6 581.26 1050.92 516.05 1114.15 443.51 1156.22 393.46 1167.43 375.12 1150.95 412.09 1111.5 505.62 1055.52 643.9 992.34 788.28 921.98 881.62 854.94 887.94 795.72 793.49 737.6 646 689.07 512.68 650.38 473.62 612.8 560.93 583.39 732.32 562.27 888.52 541.14 930.71 529.3 834.03 527.05 663.79 525.89 513.66 536 462.67 557.5 522.59 580.12 658.29 612.37 793.31 650.17 868.26 680.79 861.82 706.44 778.3 718.21 655.95 707 522.64 670.74 417.63 606.67 353.82 521.44 328.3 421.18 335.08 320.9 356.52 239.92 392.28 192.02 421.9 190.82 437.07 236.08 452.84 322.8 450.91 432.84 429.79 536.31 408.66 609.64 369.35 639.19 313.73 620.68 258.72 563.75 190.67 485.26 118.31 396.74 60.26 321.11 18.69 270.53 11.65 246.39 42.9 254.42 117.58 288.54 223.2 343.83 317.86 411.22 376.33 481.34 360.78 555.27 263.84 622.51 109.87 679.9 -41.3 734.45 -116.71 779.09 -77.74 814.61 64.22 848.66 226.31 876.06 318.71 897.19 276.52 932.21 15.35 881.13 345.83 823.53 280.8 785.97 158.41 748.91 45.18 721.29 -20.66 714.86 -29.94 731.87 18.72 777.99 101.33 850.56 206.43 945.14 306.43 1049.14 388.45 1143.11 461.01 1212.08 512.72 1238.76 548.88 1217.38 579.87 1148.34 604.14 1044.9 625.27Q1044.84 625.28 1044.84 625.28" opacity="0.44"></path><path d="M1010.83 424.62C912.51 443.39 827.25 445.09 769.13 431.07 745.84 417.51 757.66 390.59 797.76 356.58 861.04 332.97 931.75 317.76 997.93 325.39 1057.21 364.69 1097.39 440.4 1116.55 550.21 1118.36 669.28 1101.73 780.26 1072.13 848.61 1031.78 849.63 986.4 777.67 941.27 651.09 892.96 524.34 849.33 444.38 813.02 455.67 776.37 561.01 748 718.7 729.22 854.57 710.44 899.27 702.14 831.36 703.38 690.29 709.01 490.48 749.33 562.86 767.97 733.75 768.63 813.66 758.3 832.63 731.88 795.4 688.11 713.52 625.67 611.25 546.83 511.56 461.11 417.53 373.55 346.63 296.51 298.4 242.65 264.62 220.14 244.73 236.18 230.58 287.05 220.78 368.51 208.29 466.83 189.51 559.93 170.73 630.94 146.55 669.09 120.94 669.69 99.68 636.96 85.41 580.86 86.64 507.72 102.33 434.59 142.31 372.62 207.4 309.96 315.81 321.61 402.73 378.15 282.65 428.59 150.53 481.08 17.05 530.75 -69.21 582.32 -72.64 627.54 12.89 664.45 157.34 701.3 291.17 729.62 355.27 748.4 310.57 767.19 174.7 775.54 20.82 774.1 -77.27 772.61 -81.32 761.55 9.32 742.52 149.84 714.61 334.58 668.2 304.35 676.88 165.54 705.9 80.33 754.82 31.58 823.69 21.23 905.21 42.54 995.17 88.67 1082.09 144.82 1151.96 211.37 1195.38 272.45 1202.04 321.42 1171.16 370.86 1103.97 405.83 1010.89 424.61Q1010.83 424.62 1010.83 424.62" opacity="0.55"></path><path d="M976.89 187.52C812.54 220.38 718.92 237.66 726.08 278.3 819.56 364.1 934.6 526.4 1017.18 721.83 1065.89 817.81 1060.08 733.75 1023.68 508.58 970.13 403.44 918.26 562.94 885.4 820.56 852.54 823.34 841.8 573.85 838.4 396.82 817.85 460.98 772.37 654.97 680.59 773.31 554.95 758.85 405.05 635.37 287.49 506.7 256.24 375.06 336.54 293.48 500.89 260.62 649.71 227.76 707.42 246.72 665.15 321.41 549.55 393.14 433.63 465.34 364.83 436.73 339.72 275.31 367.88 46.47 419.38 -41.77 486.39 111.16 544.61 347.34 577.47 344.56 610.33 86.94 614.72 -59.23 604.67 69.99 610.11 319.24 633.23 438.16 701.42 385.25 813.29 232.89 964.06 121.87 1103.74 93.01 1170.1 109.33 1125.71 154.66 976.89 187.52Q976.89 187.52 976.89 187.52" opacity="0.28"></path><path d="M942.84 264.79C799.23 292.95 700.57 363.02 673.64 475.26 717.37 588.14 797.94 711.7 875.86 771.27 969.35 640.61 977.27 477.82 938.06 786.52 909.89 810.21 878.33 620.59 835.53 418.07 781.04 354.58 698.46 450.04 587.36 588 417.3 717.81 347.61 597.74 534.84 538.06 666.94 509.89 737.45 519.26 733.17 538.15 663 523.19 569.62 453.23 491.67 299.5 415.04 61.96 442.79 313.11 485.7 378.52 513.87 160.77 538.05 -9.71 567.82 18.24 610.35 204.78 678.9 395.71 780.14 482.76 895.01 460.11 1018.27 380.51 1109.1 316.44 1134.03 253.01 1074.97 236.61 942.9 264.78Q942.84 264.79 942.84 264.79" opacity="0.53"></path><path d="M908.84 542.1C787.33 565.57 691.66 618 642.35 677.56 642.5 714.18 678.9 712.47 728.23 640.05 790.6 526.89 838.02 393.85 861.46 328.88 881.55 396.3 879.5 575.81 856.03 752.52 832.56 790.32 789.88 664.53 729.12 482.39 665 343.41 580.95 314.54 487.82 367.88 407.72 473.01 346.43 562.27 329.07 607.68 361.18 637.74 447.33 634.57 568.84 611.1 682.28 587.63 757.28 546.08 781.42 475.34 755.7 389.26 700.6 263.36 641.34 127.47 575.68 43.36 530.76 47.34 511.67 169.11 497.88 334.04 504.16 450.32 527.63 412.52 551.1 235.8 589.53 65.81 643.99 15.59 703.76 97.78 785.3 255.71 881.73 399.63 971.76 502.82 1051.76 541.16 1094.7 545.21 1087.78 526.33 1022.31 518.62 908.9 542.09Q908.84 542.1 908.84 542.1" opacity="0.82"></path><path d="M874.9 609.11C776.56 627.89 691.13 630.29 632.24 608.33 602.23 575.54 598.95 507.12 611.96 413.48 640.85 338.02 668.89 293.43 685.75 321.3 704.61 426.48 706.67 582.61 687.9 718.51 669.12 763.26 631.27 696.22 579.87 565.49 530.47 419.53 473.12 315.12 419.62 268.99 382 272.79 365.36 305.65 381.61 336.63 426.74 375.71 504.56 390.51 602.9 371.73 695.98 352.95 767.57 302.38 808.33 230.76 817.6 167.23 802.37 105.06 775.57 76.65 735.7 98.17 701.43 182.67 681.87 314.87 661.7 431.83 659.52 491.26 678.3 446.51 697.08 310.61 735.04 162.09 787.75 70.67 839.86 56.57 903.42 121.07 967.91 221.14 1019.32 339.39 1054.46 437.12 1058.96 502.45 1031.96 556.96 967.98 590.33 874.9 609.11Q874.9 609.11 874.9 609.11" opacity="0.72"></path><path d="M840.84 366.67C697.23 394.83 595.8 327.6 555.15 252.69 555.86 283.81 561.71 466.78 533.54 684.52 505.37 708.2 448.52 524.46 410.9 350.87 414.64 235.85 493.23 202.35 636.84 174.19 768.95 146.02 843.86 128.52 860.91 206.62 837.68 343.3 820.27 504.2 848.44 480.52 876.61 262.78 945.02 102.64 1005.16 108.44 1025.02 220.27 972.95 338.5 840.84 366.67Q840.84 366.67 840.84 366.67" opacity="0.20"></path><path d="M806.9 173.53C623.45 211.09 521.98 355.48 484.43 650.51 446.87 626.51 487.45 348.34 670.9 310.78 834.35 273.23 899.41 490.51 936.97 514.51 974.52 219.48 970.35 135.98 806.9 173.53Q806.9 173.53 806.9 173.53" opacity="0.45"></path></g></svg>