<svg xmlns="http://www.w3.org/2000/svg" version="1.1" xmlns:xlink="http://www.w3.org/1999/xlink" xmlns:svgjs="http://svgjs.dev/svgjs" width="1920" height="1080" preserveAspectRatio="none" viewBox="0 0 1920 1080"><g mask="url(&quot;#SvgjsMask1009&quot;)" fill="none"><rect width="1920" height="1080" x="0" y="0" fill="rgba(255, 255, 255, 1)"></rect><path d="M158.567,361.878C225.706,359.252,270.512,300.782,303.839,242.44C336.808,184.725,362.243,117.634,331.86,58.517C299.288,-4.858,229.791,-42.304,158.567,-40.216C90.567,-38.223,35.454,8.939,2.02,68.185C-30.762,126.277,-39.195,195.767,-7.819,254.63C25.448,317.041,87.898,364.642,158.567,361.878" fill="rgba(243, 243, 243, 0.4)" class="triangle-float3"></path><path d="M104.845,233.374C155.251,231.362,206.963,221.851,235.737,180.416C268.872,132.701,281.099,70.122,253.837,18.824C225.102,-35.245,165.865,-70.947,104.845,-65.877C49.985,-61.318,21.098,-7.071,-6.656,40.47C-34.77,88.627,-73.4,143.365,-45.494,191.643C-17.599,239.903,49.147,235.598,104.845,233.374" fill="rgba(243, 243, 243, 0.4)" class="triangle-float2"></path><path d="M101.256,258.005C155.568,259.743,203.17,222.798,228.546,174.747C252.318,129.733,247.823,75.351,220.346,32.499C194.946,-7.114,148.278,-21.957,101.256,-23.768C49.912,-25.746,-8.52,-21.447,-34.861,22.669C-61.612,67.471,-38.79,121.858,-12.664,167.028C13.414,212.115,49.197,256.339,101.256,258.005" fill="rgba(243, 243, 243, 0.4)" class="triangle-float1"></path><path d="M1940.309,458.17C2024.393,454.309,2107.873,430.054,2154.464,359.952C2206.469,281.704,2224.075,180.917,2179.571,98.172C2132.964,11.516,2038.688,-36.514,1940.309,-38.224C1838.699,-39.99,1738.392,2.401,1686.192,89.595C1632.655,179.023,1629.986,295.507,1689.148,381.317C1742.413,458.573,1846.57,462.474,1940.309,458.17" fill="rgba(243, 243, 243, 0.4)" class="triangle-float2"></path><path d="M1921.089,446.999C2008.331,448.324,2095.159,418.167,2143.117,345.277C2196.119,264.72,2216.373,157.872,2165.015,76.258C2115.937,-1.732,2013.057,-13.289,1921.089,-7.552C1840.612,-2.532,1766.638,34.834,1724.731,103.721C1681.019,175.575,1668.685,265.698,1710.445,338.704C1752.46,412.155,1836.48,445.714,1921.089,446.999" fill="rgba(243, 243, 243, 0.4)" class="triangle-float3"></path><path d="M1980.454,598.862C2096.529,604.687,2206.393,541.1,2264.622,440.518C2322.967,339.736,2317.694,216.203,2260.813,114.588C2202.51,10.432,2099.685,-72.763,1980.454,-67.14C1868.078,-61.84,1792.417,38.246,1742.439,139.036C1698.754,227.135,1696.533,326.948,1741.736,414.277C1791.294,510.019,1872.782,593.458,1980.454,598.862" fill="rgba(243, 243, 243, 0.4)" class="triangle-float3"></path><path d="M90.656,1101.726C140.576,1101.274,180.779,1064.293,204.111,1020.159C225.838,979.061,225.564,930.445,202.564,890.045C179.309,849.198,137.62,822.776,90.656,820.872C40.018,818.819,-12.686,836.471,-38.158,880.285C-63.736,924.281,-52.006,978.257,-26.417,1022.247C-0.997,1065.945,40.104,1102.184,90.656,1101.726" fill="rgba(243, 243, 243, 0.4)" class="triangle-float1"></path><path d="M205.709,1315.353C297.419,1319.783,390.636,1282.497,436.953,1203.218C483.622,1123.336,467.814,1025.206,422.264,944.681C375.9,862.717,299.871,795.59,205.709,794.417C109.801,793.222,22.75,853.505,-20.399,939.166C-59.832,1017.449,-34.982,1107.473,10.174,1182.601C53.672,1254.971,121.371,1311.279,205.709,1315.353" fill="rgba(243, 243, 243, 0.4)" class="triangle-float2"></path><path d="M237.626,1340.645C321.018,1333.741,390.642,1286.472,436.032,1216.176C486.614,1137.839,524.749,1043.283,483.694,959.559C438.528,867.451,339.97,804.522,237.626,811.567C143.816,818.024,92.235,909.118,43.983,989.826C-6.268,1073.878,-74.525,1168.791,-27.202,1254.525C20.877,1341.628,138.474,1348.853,237.626,1340.645" fill="rgba(243, 243, 243, 0.4)" class="triangle-float3"></path><path d="M1906.286,1330.881C1995.802,1327.327,2065.453,1261.615,2109.055,1183.355C2151.304,1107.523,2168.728,1014.974,2123.608,940.814C2079.876,868.935,1990.333,846.189,1906.286,850.081C1829.574,853.634,1763.711,895.469,1721.239,959.449C1672.66,1032.629,1634.403,1122.023,1673.572,1200.643C1716.057,1285.921,1811.086,1334.66,1906.286,1330.881" fill="rgba(243, 243, 243, 0.4)" class="triangle-float3"></path><path d="M1950.241,1391.781C2056.507,1392.384,2165.556,1357.253,2219.7,1265.813C2274.718,1172.897,2263.14,1054.045,2203.542,963.998C2149.451,882.272,2048.246,858.711,1950.241,858.686C1852.178,858.661,1750.377,881.79,1696.713,963.866C1638.234,1053.306,1631.56,1170.848,1686.03,1262.784C1739.573,1353.156,1845.2,1391.185,1950.241,1391.781" fill="rgba(243, 243, 243, 0.4)" class="triangle-float1"></path><path d="M1802.729,1094.122C1851.311,1094.266,1899.581,1074.743,1924.103,1032.804C1948.835,990.507,1944.565,937.386,1918.711,895.766C1894.235,856.364,1849.079,839.21,1802.729,837.417C1752.281,835.465,1696.598,843.183,1670.085,886.147C1642.603,930.681,1654.455,987.967,1682.595,1032.088C1708.57,1072.814,1754.425,1093.979,1802.729,1094.122" fill="rgba(243, 243, 243, 0.4)" class="triangle-float2"></path></g><defs><mask id="SvgjsMask1009"><rect width="1920" height="1080" fill="#ffffff"></rect></mask><style>
                @keyframes float1 {
                    0%{transform: translate(0, 0)}
                    50%{transform: translate(-10px, 0)}
                    100%{transform: translate(0, 0)}
                }

                .triangle-float1 {
                    animation: float1 5s infinite;
                }

                @keyframes float2 {
                    0%{transform: translate(0, 0)}
                    50%{transform: translate(-5px, -5px)}
                    100%{transform: translate(0, 0)}
                }

                .triangle-float2 {
                    animation: float2 4s infinite;
                }

                @keyframes float3 {
                    0%{transform: translate(0, 0)}
                    50%{transform: translate(0, -10px)}
                    100%{transform: translate(0, 0)}
                }

                .triangle-float3 {
                    animation: float3 6s infinite;
                }
            </style></defs></svg>