<?xml version="1.0" standalone="no"?>
<!DOCTYPE svg PUBLIC "-//W3C//DTD SVG 20010904//EN"
 "http://www.w3.org/TR/2001/REC-SVG-20010904/DTD/svg10.dtd">
<svg version="1.0" xmlns="http://www.w3.org/2000/svg"
 width="1000.000000pt" height="1000.000000pt" viewBox="0 0 1000.000000 1000.000000"
 preserveAspectRatio="xMidYMid meet">
<metadata>
Created by potrace 1.14, written by Peter Selinger 2001-2017
</metadata>
<g transform="translate(0.000000,1000.000000) scale(0.100000,-0.100000)"
fill="#000000" stroke="none">
<path d="M5027 8532 c-4 -8 -3 -129 8 -742 6 -376 9 -484 14 -501 0 -3 7 -6
14 -6 30 -1 212 -15 231 -19 103 -18 101 -20 111 76 3 30 8 62 10 70 2 8 7 31
10 50 3 19 10 61 16 92 5 32 12 70 15 85 2 16 11 62 19 103 8 41 17 91 20 110
4 19 10 53 15 75 5 22 11 56 15 75 3 19 10 55 15 80 5 25 12 59 14 75 3 17 8
44 11 60 19 101 25 133 30 160 11 64 16 89 21 97 6 9 -15 14 -121 28 -44 6
-95 13 -113 15 -18 3 -84 8 -145 10 -62 3 -133 8 -159 10 -26 2 -49 1 -51 -3z"/>
<path d="M3250 8068 c-209 -127 -334 -214 -485 -337 -44 -36 -100 -83 -123
-106 -24 -22 -50 -44 -58 -48 -8 -4 -14 -11 -14 -16 0 -9 22 -34 320 -356 36
-39 115 -124 175 -190 207 -225 240 -261 294 -318 l53 -58 67 58 c96 85 185
153 287 218 49 32 90 59 92 61 2 1 -85 177 -193 391 -109 213 -235 463 -282
556 -47 92 -88 167 -92 167 -3 0 -22 -10 -41 -22z"/>
<path d="M7465 7475 c-16 -18 -210 -216 -430 -440 -220 -224 -401 -411 -403
-416 -2 -5 18 -32 45 -60 26 -28 50 -55 51 -60 5 -12 35 14 187 156 66 61 174
161 240 221 66 60 129 118 141 129 11 11 67 63 124 115 57 52 129 119 159 147
31 29 59 53 64 53 23 0 -2 38 -70 108 l-78 80 -30 -33z"/>
<path d="M1692 6238 c-33 -84 -116 -360 -137 -458 -2 -8 -8 -35 -13 -60 -6
-25 -13 -63 -16 -85 -4 -22 -8 -47 -11 -55 -2 -8 -6 -40 -9 -70 -4 -30 -8 -66
-11 -80 -7 -40 -14 -105 -21 -216 l-6 -101 88 -3 c49 -1 114 -3 144 -5 30 -1
136 -6 235 -10 99 -3 209 -8 245 -10 36 -2 144 -6 240 -10 96 -4 203 -8 238
-10 l62 -4 1 42 c3 171 54 437 123 636 l33 97 -41 17 c-116 47 -609 242 -661
262 -33 13 -145 57 -250 99 -104 42 -195 76 -201 76 -5 0 -20 -24 -32 -52z"/>
<path d="M2700 4263 c-63 -19 -144 -44 -180 -55 -36 -11 -78 -23 -95 -28 -16
-5 -59 -17 -95 -28 -36 -11 -171 -52 -300 -92 -353 -107 -400 -122 -400 -129
0 -11 77 -224 99 -276 143 -331 287 -580 470 -814 96 -124 192 -232 202 -229
4 2 54 46 111 98 152 141 246 227 308 285 30 28 109 100 175 160 66 60 147
135 180 166 33 31 77 71 98 89 20 18 37 36 37 41 0 5 -29 44 -65 87 -150 177
-307 449 -387 669 -18 51 -35 92 -38 92 -3 0 -57 -16 -120 -36z"/>
<path d="M6505 3270 c-11 -18 -230 -177 -310 -225 -95 -57 -264 -142 -355
-178 -69 -27 -282 -93 -328 -102 -15 -3 -38 -7 -52 -10 -27 -6 -216 -35 -226
-35 -5 0 1 -107 11 -185 2 -16 7 -57 10 -90 3 -33 8 -78 11 -100 2 -22 7 -66
9 -98 3 -32 7 -77 9 -100 5 -41 13 -121 21 -202 6 -63 16 -157 20 -190 2 -16
7 -64 11 -105 3 -41 8 -86 9 -100 2 -14 3 -36 4 -49 1 -23 2 -24 69 -17 37 3
78 8 92 11 13 2 40 7 60 10 20 3 45 7 55 9 92 17 111 21 120 21 6 1 28 7 50
13 22 6 54 14 70 17 17 3 39 8 51 10 50 11 336 110 436 150 324 133 689 355
927 562 l43 38 -82 100 c-46 55 -101 122 -124 149 -47 56 -110 131 -135 161
-9 11 -115 138 -235 283 -120 144 -222 262 -227 262 -4 0 -11 -4 -14 -10z"/>
<path d="M3651 2953 c-50 -76 -128 -196 -174 -268 -112 -173 -256 -394 -346
-533 -41 -62 -72 -114 -70 -116 18 -16 281 -167 358 -206 257 -128 648 -261
901 -304 19 -3 46 -8 60 -11 23 -5 94 -16 180 -30 63 -10 241 -21 250 -15 4 3
11 82 15 175 3 94 8 204 10 245 2 41 6 138 10 215 3 77 8 181 10 230 15 321
16 375 8 376 -4 0 -17 2 -28 4 -11 2 -47 7 -80 10 -132 14 -153 17 -219 32
-37 8 -73 16 -80 17 -179 38 -458 155 -638 267 l-78 49 -89 -137z"/>
</g>
</svg>
