<svg xmlns="http://www.w3.org/2000/svg" xmlns:xlink="http://www.w3.org/1999/xlink" width="955" zoomAndPan="magnify" viewBox="0 0 716.25 361.499994" height="482" preserveAspectRatio="xMidYMid meet" version="1.0"><defs><g/><clipPath id="aa3aa7cc15"><path d="M 187 229 L 248 229 L 248 282 L 187 282 Z M 187 229 " clip-rule="nonzero"/></clipPath><clipPath id="3cdafb61a5"><path d="M 38.300781 170.800781 L 190.480469 37.628906 L 324.144531 190.367188 L 171.96875 323.542969 Z M 38.300781 170.800781 " clip-rule="nonzero"/></clipPath><clipPath id="b2d668b110"><path d="M 171.730469 323.269531 L 323.90625 190.09375 L 161.140625 4.101562 L 8.960938 137.273438 Z M 171.730469 323.269531 " clip-rule="nonzero"/></clipPath><clipPath id="9e4427123e"><path d="M 171.730469 323.269531 L 323.90625 190.09375 L 161.140625 4.101562 L 8.960938 137.273438 Z M 171.730469 323.269531 " clip-rule="nonzero"/></clipPath><clipPath id="0f0bd11b68"><path d="M 125 234 L 178 234 L 178 282 L 125 282 Z M 125 234 " clip-rule="nonzero"/></clipPath><clipPath id="32d7c08eea"><path d="M 38.300781 170.800781 L 190.480469 37.628906 L 324.144531 190.367188 L 171.96875 323.542969 Z M 38.300781 170.800781 " clip-rule="nonzero"/></clipPath><clipPath id="01d9db525a"><path d="M 171.730469 323.269531 L 323.90625 190.09375 L 161.140625 4.101562 L 8.960938 137.273438 Z M 171.730469 323.269531 " clip-rule="nonzero"/></clipPath><clipPath id="3c155e13dc"><path d="M 171.730469 323.269531 L 323.90625 190.09375 L 161.140625 4.101562 L 8.960938 137.273438 Z M 171.730469 323.269531 " clip-rule="nonzero"/></clipPath><clipPath id="417897353d"><path d="M 84 200 L 133 200 L 133 249 L 84 249 Z M 84 200 " clip-rule="nonzero"/></clipPath><clipPath id="17fc5d84e6"><path d="M 38.300781 170.800781 L 190.480469 37.628906 L 324.144531 190.367188 L 171.96875 323.542969 Z M 38.300781 170.800781 " clip-rule="nonzero"/></clipPath><clipPath id="637546ee1a"><path d="M 171.730469 323.269531 L 323.90625 190.09375 L 161.140625 4.101562 L 8.960938 137.273438 Z M 171.730469 323.269531 " clip-rule="nonzero"/></clipPath><clipPath id="2bbf4a85cc"><path d="M 171.730469 323.269531 L 323.90625 190.09375 L 161.140625 4.101562 L 8.960938 137.273438 Z M 171.730469 323.269531 " clip-rule="nonzero"/></clipPath><clipPath id="d06ed86b7d"><path d="M 80 143 L 121 143 L 121 179 L 80 179 Z M 80 143 " clip-rule="nonzero"/></clipPath><clipPath id="385b7f274b"><path d="M 38.300781 170.800781 L 190.480469 37.628906 L 324.144531 190.367188 L 171.96875 323.542969 Z M 38.300781 170.800781 " clip-rule="nonzero"/></clipPath><clipPath id="16ae1e5499"><path d="M 171.730469 323.269531 L 323.90625 190.09375 L 161.140625 4.101562 L 8.960938 137.273438 Z M 171.730469 323.269531 " clip-rule="nonzero"/></clipPath><clipPath id="bdbe4d7cdd"><path d="M 171.730469 323.269531 L 323.90625 190.09375 L 161.140625 4.101562 L 8.960938 137.273438 Z M 171.730469 323.269531 " clip-rule="nonzero"/></clipPath><clipPath id="ff672d033e"><path d="M 111 91 L 149 91 L 149 134 L 111 134 Z M 111 91 " clip-rule="nonzero"/></clipPath><clipPath id="bf96783bfc"><path d="M 38.300781 170.800781 L 190.480469 37.628906 L 324.144531 190.367188 L 171.96875 323.542969 Z M 38.300781 170.800781 " clip-rule="nonzero"/></clipPath><clipPath id="759fb0cce4"><path d="M 171.730469 323.269531 L 323.90625 190.09375 L 161.140625 4.101562 L 8.960938 137.273438 Z M 171.730469 323.269531 " clip-rule="nonzero"/></clipPath><clipPath id="c2b576bb28"><path d="M 171.730469 323.269531 L 323.90625 190.09375 L 161.140625 4.101562 L 8.960938 137.273438 Z M 171.730469 323.269531 " clip-rule="nonzero"/></clipPath><clipPath id="15cd210bdd"><path d="M 181 79 L 199 79 L 199 116 L 181 116 Z M 181 79 " clip-rule="nonzero"/></clipPath><clipPath id="98dafb3b89"><path d="M 38.300781 170.800781 L 190.480469 37.628906 L 324.144531 190.367188 L 171.96875 323.542969 Z M 38.300781 170.800781 " clip-rule="nonzero"/></clipPath><clipPath id="fd823636f9"><path d="M 171.730469 323.269531 L 323.90625 190.09375 L 161.140625 4.101562 L 8.960938 137.273438 Z M 171.730469 323.269531 " clip-rule="nonzero"/></clipPath><clipPath id="a46b97e28a"><path d="M 171.730469 323.269531 L 323.90625 190.09375 L 161.140625 4.101562 L 8.960938 137.273438 Z M 171.730469 323.269531 " clip-rule="nonzero"/></clipPath><clipPath id="863b7b95a3"><path d="M 227 108 L 257 108 L 257 138 L 227 138 Z M 227 108 " clip-rule="nonzero"/></clipPath><clipPath id="3458c3b4aa"><path d="M 38.300781 170.800781 L 190.480469 37.628906 L 324.144531 190.367188 L 171.96875 323.542969 Z M 38.300781 170.800781 " clip-rule="nonzero"/></clipPath><clipPath id="7eb1892015"><path d="M 171.730469 323.269531 L 323.90625 190.09375 L 161.140625 4.101562 L 8.960938 137.273438 Z M 171.730469 323.269531 " clip-rule="nonzero"/></clipPath><clipPath id="81536b5c1e"><path d="M 171.730469 323.269531 L 323.90625 190.09375 L 161.140625 4.101562 L 8.960938 137.273438 Z M 171.730469 323.269531 " clip-rule="nonzero"/></clipPath><clipPath id="9ac7f5c197"><path d="M 38 115 L 41 115 L 41 140 L 38 140 Z M 38 115 " clip-rule="nonzero"/></clipPath><clipPath id="6945105e3a"><path d="M 38.300781 170.800781 L 190.480469 37.628906 L 324.144531 190.367188 L 171.96875 323.542969 Z M 38.300781 170.800781 " clip-rule="nonzero"/></clipPath><clipPath id="d01c10871d"><path d="M 171.730469 323.269531 L 323.90625 190.09375 L 161.140625 4.101562 L 8.960938 137.273438 Z M 171.730469 323.269531 " clip-rule="nonzero"/></clipPath><clipPath id="deae2f9bf8"><path d="M 171.730469 323.269531 L 323.90625 190.09375 L 161.140625 4.101562 L 8.960938 137.273438 Z M 171.730469 323.269531 " clip-rule="nonzero"/></clipPath><clipPath id="61451da81a"><path d="M 39 104 L 61 104 L 61 127 L 39 127 Z M 39 104 " clip-rule="nonzero"/></clipPath><clipPath id="dde6512f84"><path d="M 38.300781 170.800781 L 190.480469 37.628906 L 324.144531 190.367188 L 171.96875 323.542969 Z M 38.300781 170.800781 " clip-rule="nonzero"/></clipPath><clipPath id="189f4332ad"><path d="M 171.730469 323.269531 L 323.90625 190.09375 L 161.140625 4.101562 L 8.960938 137.273438 Z M 171.730469 323.269531 " clip-rule="nonzero"/></clipPath><clipPath id="246f2a5aab"><path d="M 171.730469 323.269531 L 323.90625 190.09375 L 161.140625 4.101562 L 8.960938 137.273438 Z M 171.730469 323.269531 " clip-rule="nonzero"/></clipPath><clipPath id="d95afc5fc2"><path d="M 52 88 L 74 88 L 74 111 L 52 111 Z M 52 88 " clip-rule="nonzero"/></clipPath><clipPath id="bb1b2b9188"><path d="M 38.300781 170.800781 L 190.480469 37.628906 L 324.144531 190.367188 L 171.96875 323.542969 Z M 38.300781 170.800781 " clip-rule="nonzero"/></clipPath><clipPath id="dfc5f74c4d"><path d="M 171.730469 323.269531 L 323.90625 190.09375 L 161.140625 4.101562 L 8.960938 137.273438 Z M 171.730469 323.269531 " clip-rule="nonzero"/></clipPath><clipPath id="fdb21beaa0"><path d="M 171.730469 323.269531 L 323.90625 190.09375 L 161.140625 4.101562 L 8.960938 137.273438 Z M 171.730469 323.269531 " clip-rule="nonzero"/></clipPath><clipPath id="8b812f396e"><path d="M 68 78 L 92 78 L 92 101 L 68 101 Z M 68 78 " clip-rule="nonzero"/></clipPath><clipPath id="5e8d958ece"><path d="M 38.300781 170.800781 L 190.480469 37.628906 L 324.144531 190.367188 L 171.96875 323.542969 Z M 38.300781 170.800781 " clip-rule="nonzero"/></clipPath><clipPath id="3f6f0b549b"><path d="M 171.730469 323.269531 L 323.90625 190.09375 L 161.140625 4.101562 L 8.960938 137.273438 Z M 171.730469 323.269531 " clip-rule="nonzero"/></clipPath><clipPath id="48ec1e5c94"><path d="M 171.730469 323.269531 L 323.90625 190.09375 L 161.140625 4.101562 L 8.960938 137.273438 Z M 171.730469 323.269531 " clip-rule="nonzero"/></clipPath><clipPath id="652e443560"><path d="M 84 70 L 101 70 L 101 88 L 84 88 Z M 84 70 " clip-rule="nonzero"/></clipPath><clipPath id="2566ddba43"><path d="M 38.300781 170.800781 L 190.480469 37.628906 L 324.144531 190.367188 L 171.96875 323.542969 Z M 38.300781 170.800781 " clip-rule="nonzero"/></clipPath><clipPath id="9f16b0c34d"><path d="M 171.730469 323.269531 L 323.90625 190.09375 L 161.140625 4.101562 L 8.960938 137.273438 Z M 171.730469 323.269531 " clip-rule="nonzero"/></clipPath><clipPath id="6c81f95e87"><path d="M 171.730469 323.269531 L 323.90625 190.09375 L 161.140625 4.101562 L 8.960938 137.273438 Z M 171.730469 323.269531 " clip-rule="nonzero"/></clipPath><clipPath id="968402806c"><path d="M 91 55 L 117 55 L 117 82 L 91 82 Z M 91 55 " clip-rule="nonzero"/></clipPath><clipPath id="3670ea128d"><path d="M 38.300781 170.800781 L 190.480469 37.628906 L 324.144531 190.367188 L 171.96875 323.542969 Z M 38.300781 170.800781 " clip-rule="nonzero"/></clipPath><clipPath id="b41ca7077d"><path d="M 171.730469 323.269531 L 323.90625 190.09375 L 161.140625 4.101562 L 8.960938 137.273438 Z M 171.730469 323.269531 " clip-rule="nonzero"/></clipPath><clipPath id="ab13326a2c"><path d="M 171.730469 323.269531 L 323.90625 190.09375 L 161.140625 4.101562 L 8.960938 137.273438 Z M 171.730469 323.269531 " clip-rule="nonzero"/></clipPath><clipPath id="ec689f355a"><path d="M 110 41 L 132 41 L 132 65 L 110 65 Z M 110 41 " clip-rule="nonzero"/></clipPath><clipPath id="33d4a8e382"><path d="M 38.300781 170.800781 L 190.480469 37.628906 L 324.144531 190.367188 L 171.96875 323.542969 Z M 38.300781 170.800781 " clip-rule="nonzero"/></clipPath><clipPath id="a8b6ad737d"><path d="M 171.730469 323.269531 L 323.90625 190.09375 L 161.140625 4.101562 L 8.960938 137.273438 Z M 171.730469 323.269531 " clip-rule="nonzero"/></clipPath><clipPath id="172bbd3848"><path d="M 171.730469 323.269531 L 323.90625 190.09375 L 161.140625 4.101562 L 8.960938 137.273438 Z M 171.730469 323.269531 " clip-rule="nonzero"/></clipPath></defs><g clip-path="url(#aa3aa7cc15)"><g clip-path="url(#3cdafb61a5)"><g clip-path="url(#b2d668b110)"><g clip-path="url(#9e4427123e)"><path fill="#000000" d="M 189.289062 245.335938 L 192.207031 244.898438 L 195.582031 244.242188 C 195.699219 244.210938 195.820312 244.179688 195.941406 244.148438 C 196.234375 244.074219 196.527344 244 196.828125 243.929688 L 198.621094 243.476562 C 198.839844 243.417969 199.0625 243.34375 199.289062 243.273438 C 199.5625 243.191406 199.832031 243.109375 200.105469 243.027344 C 200.386719 242.941406 200.671875 242.855469 200.953125 242.769531 C 201.1875 242.703125 201.421875 242.632812 201.660156 242.558594 L 203.714844 241.824219 L 204.105469 241.6875 C 204.507812 241.554688 205.242188 241.25 205.949219 240.949219 C 206.425781 240.753906 206.894531 240.554688 207.367188 240.363281 C 211.097656 238.777344 215.347656 236.359375 219.070312 233.710938 L 221.542969 231.855469 C 221.652344 231.773438 221.898438 231.570312 222.117188 231.382812 C 222.390625 231.152344 222.652344 230.933594 222.898438 230.730469 L 224.523438 229.382812 L 247.390625 256.882812 L 245.6875 258.300781 L 245.476562 258.476562 C 245.378906 258.554688 245.277344 258.640625 245.171875 258.734375 C 244.675781 259.148438 243.929688 259.777344 243.003906 260.472656 L 240.351562 262.457031 L 240.050781 262.679688 C 236.613281 265.144531 229.582031 269.8125 221.171875 273.359375 L 220.898438 273.472656 C 220.527344 273.621094 220.15625 273.777344 219.785156 273.933594 C 218.632812 274.414062 217.210938 275.011719 215.59375 275.558594 L 213.257812 276.390625 C 212.472656 276.65625 211.773438 276.863281 211.207031 277.035156 C 211.015625 277.089844 210.820312 277.152344 210.628906 277.207031 L 210.386719 277.28125 C 210.183594 277.34375 209.988281 277.402344 209.785156 277.464844 C 209.25 277.628906 208.585938 277.832031 207.839844 278.035156 L 205.257812 278.683594 C 205.117188 278.714844 204.976562 278.753906 204.835938 278.789062 C 204.277344 278.933594 203.511719 279.128906 202.609375 279.304688 L 199.085938 280.007812 L 194.144531 280.769531 L 191.101562 281.09375 L 187.492188 245.515625 L 189.289062 245.335938 " fill-opacity="1" fill-rule="nonzero"/></g></g></g></g><g clip-path="url(#0f0bd11b68)"><g clip-path="url(#32d7c08eea)"><g clip-path="url(#01d9db525a)"><g clip-path="url(#3c155e13dc)"><path fill="#000000" d="M 146.550781 235.949219 L 149.855469 237.894531 C 151.601562 238.835938 155.738281 240.9375 160.527344 242.5 L 160.648438 242.539062 C 164.152344 243.710938 168.417969 244.699219 172.066406 245.1875 L 172.496094 245.25 C 173.386719 245.390625 174.257812 245.464844 175.179688 245.542969 C 175.621094 245.585938 176.03125 245.621094 176.402344 245.660156 C 176.53125 245.671875 176.652344 245.679688 176.757812 245.691406 L 177.3125 245.714844 L 175.800781 281.4375 L 175.449219 281.421875 C 174.597656 281.398438 173.800781 281.324219 172.992188 281.25 L 172.875 281.238281 C 172.644531 281.214844 172.386719 281.195312 172.109375 281.171875 C 170.9375 281.066406 169.191406 280.914062 167.152344 280.601562 C 163.660156 280.128906 156.894531 278.972656 149.394531 276.472656 C 141.902344 274.023438 135.648438 270.863281 132.582031 269.195312 L 128.695312 266.945312 L 128.304688 266.710938 C 127.960938 266.5 127.640625 266.292969 127.339844 266.09375 L 125.523438 264.917969 L 144.957031 234.917969 L 146.550781 235.949219 " fill-opacity="1" fill-rule="nonzero"/></g></g></g></g><g clip-path="url(#417897353d)"><g clip-path="url(#17fc5d84e6)"><g clip-path="url(#637546ee1a)"><g clip-path="url(#2bbf4a85cc)"><path fill="#000000" d="M 102.367188 243.859375 L 101.964844 243.363281 C 98.449219 238.859375 95.675781 234.785156 93.480469 230.910156 C 90.144531 225.109375 87.949219 219.90625 86.933594 217.316406 L 86.90625 217.25 C 86.40625 215.957031 86 214.808594 85.707031 213.976562 C 85.601562 213.675781 85.503906 213.402344 85.417969 213.160156 C 85.09375 212.300781 84.882812 211.59375 84.769531 211.210938 L 84.585938 210.609375 L 118.746094 200.296875 L 118.804688 200.277344 L 118.808594 200.277344 L 118.894531 200.5625 C 118.933594 200.683594 118.972656 200.816406 119.015625 200.957031 C 119.136719 201.292969 119.273438 201.667969 119.417969 202.082031 C 119.667969 202.796875 119.929688 203.53125 120.234375 204.320312 C 121.332031 207.113281 122.921875 210.410156 124.496094 213.140625 L 124.566406 213.269531 C 125.855469 215.546875 127.625 218.125 129.964844 221.140625 C 130.3125 221.558594 130.636719 221.953125 130.945312 222.320312 C 131.304688 222.757812 131.75 223.296875 131.972656 223.554688 L 132.90625 224.570312 L 106.617188 248.785156 L 105.378906 247.433594 C 104.726562 246.710938 104.082031 245.925781 103.398438 245.101562 C 103.082031 244.714844 102.734375 244.300781 102.367188 243.859375 " fill-opacity="1" fill-rule="nonzero"/></g></g></g></g><g clip-path="url(#d06ed86b7d)"><g clip-path="url(#385b7f274b)"><g clip-path="url(#16ae1e5499)"><g clip-path="url(#bdbe4d7cdd)"><path fill="#000000" d="M 119.535156 158.410156 C 119.375 158.886719 119.199219 159.40625 119.007812 159.953125 L 118.914062 160.210938 C 118.804688 160.507812 118.554688 161.378906 118.375 162.019531 C 118.238281 162.492188 118.097656 162.980469 117.953125 163.472656 L 117.894531 163.660156 C 117.851562 163.835938 117.8125 164.015625 117.769531 164.195312 C 117.703125 164.472656 117.640625 164.757812 117.570312 165.039062 C 117.492188 165.386719 117.402344 165.730469 117.320312 166.078125 C 117.265625 166.304688 117.207031 166.527344 117.167969 166.71875 L 117.15625 166.769531 C 117.082031 167.195312 117 167.617188 116.921875 168.039062 C 116.714844 169.113281 116.523438 170.128906 116.441406 170.789062 L 116.410156 171.085938 C 116.363281 171.433594 116.3125 171.773438 116.265625 172.113281 C 116.226562 172.40625 116.183594 172.691406 116.152344 172.972656 L 115.980469 174.84375 C 115.957031 175.125 115.929688 175.398438 115.90625 175.667969 C 115.894531 175.804688 115.878906 175.933594 115.867188 176.0625 L 115.765625 178.527344 L 80.042969 176.988281 L 80.164062 174.175781 C 80.199219 173.449219 80.261719 172.808594 80.308594 172.292969 C 80.324219 172.128906 80.339844 171.960938 80.355469 171.785156 L 80.46875 170.515625 L 80.597656 169.105469 C 80.675781 168.453125 80.765625 167.773438 80.863281 167.082031 C 80.894531 166.875 80.921875 166.667969 80.953125 166.457031 C 81.175781 164.585938 81.503906 162.867188 81.792969 161.347656 C 81.859375 160.992188 81.925781 160.632812 81.992188 160.277344 C 82.191406 159.195312 82.421875 158.257812 82.585938 157.574219 C 82.636719 157.375 82.6875 157.175781 82.730469 156.976562 L 82.820312 156.597656 C 82.863281 156.414062 82.90625 156.234375 82.949219 156.054688 C 83.117188 155.324219 83.347656 154.335938 83.695312 153.214844 C 83.796875 152.855469 83.898438 152.503906 83.996094 152.160156 C 84.363281 150.882812 84.777344 149.441406 85.320312 147.945312 C 85.4375 147.609375 85.542969 147.289062 85.644531 146.992188 C 85.933594 146.140625 86.253906 145.1875 86.667969 144.183594 L 87.070312 143.164062 L 120.292969 156.40625 L 119.765625 157.726562 C 119.695312 157.933594 119.617188 158.164062 119.535156 158.410156 " fill-opacity="1" fill-rule="nonzero"/></g></g></g></g><g clip-path="url(#ff672d033e)"><g clip-path="url(#bf96783bfc)"><g clip-path="url(#759fb0cce4)"><g clip-path="url(#c2b576bb28)"><path fill="#000000" d="M 135.550781 133.519531 L 111.324219 107.203125 L 113.714844 105 C 113.972656 104.761719 114.222656 104.535156 114.46875 104.320312 C 115.039062 103.824219 115.578125 103.378906 116.074219 102.972656 C 116.328125 102.761719 116.597656 102.542969 116.863281 102.316406 L 117.390625 101.878906 C 117.824219 101.511719 118.460938 100.972656 119.285156 100.371094 L 121.277344 98.878906 C 121.726562 98.539062 122.175781 98.203125 122.632812 97.875 L 124.851562 96.375 C 125.898438 95.664062 127.078125 94.867188 128.375 94.113281 L 130.1875 93.019531 C 131.082031 92.472656 131.777344 92.097656 132.210938 91.882812 L 148.355469 123.796875 C 148.746094 123.597656 148.910156 123.5 148.933594 123.484375 L 146.691406 124.835938 L 146.34375 125.039062 C 146.089844 125.1875 145.402344 125.652344 144.898438 125.996094 L 143.304688 127.074219 C 143.128906 127.199219 142.960938 127.324219 142.796875 127.449219 C 142.589844 127.605469 142.378906 127.761719 142.171875 127.917969 L 140.632812 129.070312 L 140.480469 129.195312 C 140.269531 129.375 140.0625 129.550781 139.847656 129.722656 C 139.492188 130.023438 139.136719 130.316406 138.796875 130.59375 C 138.515625 130.824219 138.132812 131.144531 138.027344 131.234375 L 135.550781 133.519531 " fill-opacity="1" fill-rule="nonzero"/></g></g></g></g><g clip-path="url(#15cd210bdd)"><g clip-path="url(#98dafb3b89)"><g clip-path="url(#fd823636f9)"><g clip-path="url(#a46b97e28a)"><path fill="#000000" d="M 181.832031 97.199219 L 181.535156 79.320312 C 182.097656 79.3125 183.257812 79.3125 184.789062 79.390625 L 186.699219 79.472656 C 187.773438 79.507812 188.6875 79.597656 189.367188 79.664062 C 189.535156 79.683594 189.710938 79.699219 189.878906 79.714844 L 190.292969 79.75 C 190.5 79.769531 190.714844 79.789062 190.921875 79.808594 C 191.597656 79.867188 192.433594 79.933594 193.421875 80.074219 L 197.078125 80.582031 L 198.453125 80.824219 L 192.839844 110.78125 L 192.109375 115.992188 L 191.871094 115.957031 L 191.871094 115.964844 L 188.5625 115.496094 C 188.339844 115.46875 188.113281 115.453125 187.882812 115.4375 C 187.570312 115.40625 187.253906 115.378906 186.9375 115.347656 C 186.589844 115.320312 186.242188 115.285156 185.898438 115.25 C 185.757812 115.238281 185.621094 115.222656 185.484375 115.210938 L 182.921875 115.097656 C 182.453125 115.078125 182.140625 115.078125 182.140625 115.078125 L 181.832031 97.199219 " fill-opacity="1" fill-rule="nonzero"/></g></g></g></g><g clip-path="url(#863b7b95a3)"><g clip-path="url(#3458c3b4aa)"><g clip-path="url(#7eb1892015)"><g clip-path="url(#81536b5c1e)"><path fill="#000000" d="M 252.839844 109.210938 C 253.554688 109.894531 254.140625 110.539062 254.585938 111.023438 L 256.894531 113.527344 L 230.597656 137.742188 L 228.683594 135.660156 C 228.523438 135.492188 228.371094 135.320312 228.222656 135.15625 C 228.152344 135.082031 228.082031 135.003906 228.011719 134.929688 L 227.285156 134.214844 L 252.320312 108.703125 L 252.839844 109.210938 " fill-opacity="1" fill-rule="nonzero"/></g></g></g></g><g clip-path="url(#9ac7f5c197)"><g clip-path="url(#6945105e3a)"><g clip-path="url(#d01c10871d)"><g clip-path="url(#deae2f9bf8)"><path fill="#000000" d="M 40.332031 137.308594 C 40.316406 137.875 40.070312 138.363281 39.601562 138.773438 C 39.140625 139.179688 38.628906 139.347656 38.070312 139.28125 C 37.511719 139.214844 36.953125 138.867188 36.402344 138.234375 L 26.015625 126.363281 C 25.425781 125.691406 25.148438 125.074219 25.183594 124.511719 C 25.214844 123.949219 25.574219 123.371094 26.253906 122.777344 L 33.785156 116.183594 C 34.296875 115.734375 34.789062 115.511719 35.257812 115.515625 C 35.730469 115.515625 36.132812 115.707031 36.464844 116.085938 C 36.789062 116.457031 36.925781 116.882812 36.871094 117.363281 C 36.816406 117.847656 36.535156 118.308594 36.03125 118.75 L 29.707031 124.285156 L 39.523438 135.503906 C 40.082031 136.140625 40.351562 136.742188 40.332031 137.308594 " fill-opacity="1" fill-rule="nonzero"/></g></g></g></g><g clip-path="url(#61451da81a)"><g clip-path="url(#dde6512f84)"><g clip-path="url(#189f4332ad)"><g clip-path="url(#246f2a5aab)"><path fill="#000000" d="M 51.03125 109.335938 C 49.90625 108.847656 48.832031 108.695312 47.816406 108.882812 C 46.796875 109.066406 45.886719 109.511719 45.089844 110.207031 C 44.464844 110.753906 43.996094 111.371094 43.675781 112.058594 C 43.355469 112.746094 43.199219 113.5 43.203125 114.320312 C 43.207031 115.136719 43.410156 115.996094 43.808594 116.898438 C 44.207031 117.800781 44.792969 118.6875 45.558594 119.566406 C 46.320312 120.433594 47.113281 121.121094 47.945312 121.625 C 48.777344 122.128906 49.578125 122.4375 50.355469 122.554688 C 51.128906 122.667969 51.882812 122.609375 52.617188 122.382812 C 53.351562 122.15625 54.03125 121.769531 54.652344 121.222656 C 55.53125 120.457031 56.117188 119.566406 56.421875 118.550781 C 56.730469 117.535156 56.699219 116.453125 56.339844 115.308594 C 55.980469 114.160156 55.308594 113.023438 54.320312 111.894531 C 53.253906 110.675781 52.15625 109.824219 51.03125 109.335938 Z M 60.085938 119.128906 C 59.507812 120.78125 58.421875 122.304688 56.824219 123.703125 C 55.648438 124.734375 54.4375 125.46875 53.1875 125.910156 C 51.941406 126.351562 50.695312 126.507812 49.441406 126.375 C 48.191406 126.246094 46.960938 125.835938 45.757812 125.144531 C 44.550781 124.453125 43.429688 123.515625 42.394531 122.332031 C 41.382812 121.175781 40.605469 119.957031 40.058594 118.675781 C 39.515625 117.398438 39.25 116.125 39.269531 114.859375 C 39.285156 113.589844 39.601562 112.347656 40.214844 111.125 C 40.824219 109.902344 41.734375 108.761719 42.9375 107.710938 C 44.152344 106.648438 45.390625 105.898438 46.660156 105.453125 C 47.929688 105.011719 49.199219 104.863281 50.472656 105.015625 C 51.742188 105.167969 52.964844 105.589844 54.140625 106.28125 C 55.3125 106.972656 56.421875 107.914062 57.464844 109.105469 C 58.875 110.71875 59.808594 112.378906 60.269531 114.089844 C 60.726562 115.800781 60.664062 117.480469 60.085938 119.128906 " fill-opacity="1" fill-rule="nonzero"/></g></g></g></g><g clip-path="url(#d95afc5fc2)"><g clip-path="url(#bb1b2b9188)"><g clip-path="url(#dfc5f74c4d)"><g clip-path="url(#fdb21beaa0)"><path fill="#000000" d="M 61.5 102.566406 L 69.347656 106.933594 L 66.105469 98.539062 Z M 73.269531 107.753906 C 73.316406 108.167969 73.265625 108.585938 73.121094 109.007812 C 72.972656 109.425781 72.683594 109.824219 72.25 110.203125 C 71.820312 110.578125 71.390625 110.8125 70.957031 110.898438 C 70.519531 110.992188 70.097656 110.980469 69.6875 110.871094 C 69.273438 110.761719 68.8125 110.574219 68.304688 110.308594 C 67.792969 110.042969 67.355469 109.816406 66.992188 109.625 L 54.292969 103.0625 C 53.78125 102.804688 53.394531 102.59375 53.128906 102.433594 C 52.859375 102.269531 52.636719 102.082031 52.453125 101.871094 C 52.132812 101.507812 51.996094 101.050781 52.046875 100.5 C 52.097656 99.949219 52.316406 99.5 52.710938 99.15625 C 53.171875 98.753906 53.625 98.597656 54.0625 98.6875 C 54.5 98.78125 55.203125 99.085938 56.164062 99.605469 L 58.628906 100.941406 L 64.894531 95.460938 L 63.933594 92.878906 C 63.824219 92.558594 63.699219 92.179688 63.5625 91.746094 C 63.429688 91.316406 63.355469 90.972656 63.339844 90.71875 C 63.328125 90.464844 63.371094 90.214844 63.46875 89.972656 C 63.566406 89.734375 63.738281 89.503906 63.984375 89.292969 C 64.40625 88.921875 64.894531 88.757812 65.453125 88.796875 C 66.011719 88.832031 66.445312 89.03125 66.757812 89.386719 C 67.058594 89.730469 67.382812 90.421875 67.730469 91.453125 L 72.410156 104.921875 C 72.65625 105.585938 72.847656 106.117188 72.988281 106.523438 C 73.125 106.929688 73.21875 107.339844 73.269531 107.753906 " fill-opacity="1" fill-rule="nonzero"/></g></g></g></g><g clip-path="url(#8b812f396e)"><g clip-path="url(#5e8d958ece)"><g clip-path="url(#3f6f0b549b)"><g clip-path="url(#48ec1e5c94)"><path fill="#000000" d="M 79.292969 82.019531 C 78.882812 82.019531 78.472656 82.101562 78.058594 82.265625 C 77.644531 82.429688 77.28125 82.625 76.960938 82.855469 C 76.644531 83.085938 76.226562 83.425781 75.707031 83.878906 L 73.34375 85.949219 L 82.496094 96.410156 L 84.554688 94.605469 C 85.507812 93.773438 86.230469 92.957031 86.722656 92.164062 C 87.214844 91.367188 87.359375 90.390625 87.15625 89.234375 C 86.949219 88.074219 86.183594 86.734375 84.851562 85.214844 C 82.964844 83.054688 81.109375 81.992188 79.292969 82.019531 Z M 82.984375 78.691406 C 83.855469 79.007812 84.707031 79.480469 85.539062 80.101562 C 86.367188 80.726562 87.1875 81.5 87.996094 82.425781 C 90.449219 85.226562 91.476562 88.019531 91.074219 90.796875 C 90.929688 91.875 90.566406 92.847656 89.980469 93.703125 C 89.394531 94.5625 88.574219 95.453125 87.519531 96.378906 L 83.453125 99.9375 C 82.777344 100.527344 82.160156 100.800781 81.597656 100.765625 C 81.03125 100.726562 80.453125 100.371094 79.863281 99.699219 L 69.972656 88.394531 C 69.539062 87.898438 69.226562 87.453125 69.042969 87.066406 C 68.855469 86.675781 68.832031 86.269531 68.96875 85.847656 C 69.105469 85.425781 69.457031 84.964844 70.027344 84.46875 L 74.089844 80.910156 C 74.800781 80.292969 75.472656 79.78125 76.117188 79.378906 C 76.761719 78.976562 77.425781 78.671875 78.113281 78.46875 C 78.800781 78.261719 79.511719 78.164062 80.25 78.175781 C 81.199219 78.199219 82.113281 78.371094 82.984375 78.691406 " fill-opacity="1" fill-rule="nonzero"/></g></g></g></g><g clip-path="url(#652e443560)"><g clip-path="url(#2566ddba43)"><g clip-path="url(#9f16b0c34d)"><g clip-path="url(#6c81f95e87)"><path fill="#000000" d="M 86.953125 70.027344 C 87.519531 70.085938 88.082031 70.4375 88.640625 71.074219 L 99.269531 83.21875 C 99.824219 83.855469 100.097656 84.460938 100.078125 85.027344 C 100.0625 85.59375 99.816406 86.082031 99.347656 86.492188 C 98.890625 86.890625 98.382812 87.058594 97.820312 86.992188 C 97.257812 86.929688 96.699219 86.582031 96.148438 85.949219 L 85.519531 73.804688 C 84.96875 73.175781 84.699219 72.574219 84.707031 72 C 84.71875 71.425781 84.949219 70.945312 85.398438 70.550781 C 85.867188 70.140625 86.386719 69.964844 86.953125 70.027344 " fill-opacity="1" fill-rule="nonzero"/></g></g></g></g><g clip-path="url(#968402806c)"><g clip-path="url(#3670ea128d)"><g clip-path="url(#b41ca7077d)"><g clip-path="url(#ab13326a2c)"><path fill="#000000" d="M 112.914062 71.464844 L 104.890625 62.292969 L 106.839844 76.628906 C 106.90625 77.042969 106.96875 77.441406 107.023438 77.824219 C 107.082031 78.207031 107.101562 78.542969 107.085938 78.828125 C 107.070312 79.113281 107.003906 79.390625 106.882812 79.65625 C 106.761719 79.921875 106.5625 80.175781 106.28125 80.421875 C 105.925781 80.734375 105.503906 80.925781 105.023438 80.996094 C 104.539062 81.066406 104.09375 81 103.683594 80.800781 C 103.320312 80.613281 102.917969 80.265625 102.476562 79.761719 L 92.070312 67.871094 C 91.558594 67.285156 91.304688 66.726562 91.304688 66.191406 C 91.304688 65.652344 91.523438 65.191406 91.964844 64.804688 C 92.394531 64.429688 92.875 64.277344 93.414062 64.335938 C 93.949219 64.398438 94.476562 64.726562 94.992188 65.3125 L 102.894531 74.34375 L 100.886719 60.242188 C 100.84375 59.851562 100.800781 59.464844 100.761719 59.082031 C 100.726562 58.703125 100.726562 58.335938 100.769531 57.988281 C 100.8125 57.644531 100.910156 57.332031 101.066406 57.054688 C 101.21875 56.777344 101.4375 56.515625 101.71875 56.269531 C 102.835938 55.289062 103.988281 55.476562 105.171875 56.828125 L 115.78125 68.953125 C 116.304688 69.546875 116.566406 70.109375 116.566406 70.632812 C 116.570312 71.15625 116.34375 71.617188 115.898438 72.007812 C 115.460938 72.390625 114.988281 72.542969 114.472656 72.46875 C 113.953125 72.394531 113.433594 72.058594 112.914062 71.464844 " fill-opacity="1" fill-rule="nonzero"/></g></g></g></g><g clip-path="url(#ec689f355a)"><g clip-path="url(#33d4a8e382)"><g clip-path="url(#a8b6ad737d)"><g clip-path="url(#172bbd3848)"><path fill="#000000" d="M 110.183594 52.628906 C 110.261719 51.335938 110.628906 50.082031 111.285156 48.863281 C 111.9375 47.648438 112.859375 46.523438 114.042969 45.484375 C 115.058594 44.597656 116.097656 43.890625 117.160156 43.367188 C 118.226562 42.84375 119.445312 42.429688 120.816406 42.117188 C 121.292969 42.011719 121.714844 41.964844 122.089844 41.972656 C 122.460938 41.980469 122.789062 42.066406 123.070312 42.234375 C 123.351562 42.402344 123.667969 42.683594 124.011719 43.074219 L 126.597656 46.027344 C 127.0625 46.5625 127.316406 47.042969 127.367188 47.472656 C 127.414062 47.902344 127.320312 48.285156 127.085938 48.625 C 126.851562 48.96875 126.519531 49.328125 126.085938 49.707031 L 122.542969 52.804688 C 122.117188 53.179688 121.679688 53.363281 121.238281 53.355469 C 120.792969 53.351562 120.417969 53.175781 120.117188 52.832031 C 119.75 52.410156 119.636719 51.984375 119.78125 51.546875 C 119.925781 51.113281 120.289062 50.640625 120.871094 50.128906 L 123.289062 48.015625 L 121.097656 45.511719 C 120.140625 45.730469 119.257812 46.027344 118.460938 46.390625 C 117.660156 46.753906 116.902344 47.253906 116.179688 47.882812 C 114.695312 49.183594 113.960938 50.683594 113.984375 52.386719 C 114.007812 54.085938 114.808594 55.84375 116.394531 57.652344 C 117.121094 58.484375 117.894531 59.152344 118.710938 59.652344 C 119.523438 60.152344 120.339844 60.460938 121.15625 60.582031 C 121.972656 60.703125 122.773438 60.636719 123.5625 60.390625 C 124.34375 60.144531 125.097656 59.703125 125.820312 59.074219 C 126.519531 58.460938 127.007812 57.851562 127.273438 57.246094 C 127.542969 56.640625 127.671875 56.066406 127.667969 55.523438 C 127.664062 54.984375 127.59375 54.242188 127.449219 53.300781 C 127.425781 52.992188 127.46875 52.691406 127.582031 52.40625 C 127.699219 52.121094 127.867188 51.878906 128.09375 51.683594 C 128.5 51.328125 128.96875 51.160156 129.5 51.183594 C 130.035156 51.203125 130.472656 51.410156 130.816406 51.804688 C 131.136719 52.167969 131.375 52.695312 131.535156 53.386719 C 131.691406 54.078125 131.707031 54.851562 131.578125 55.707031 C 131.449219 56.5625 131.105469 57.480469 130.546875 58.453125 C 129.992188 59.429688 129.195312 60.371094 128.15625 61.277344 C 126.898438 62.382812 125.609375 63.183594 124.292969 63.6875 C 122.976562 64.191406 121.667969 64.398438 120.367188 64.308594 C 119.066406 64.222656 117.800781 63.839844 116.574219 63.15625 C 115.34375 62.472656 114.207031 61.53125 113.15625 60.332031 C 112.089844 59.113281 111.304688 57.847656 110.8125 56.539062 C 110.3125 55.226562 110.101562 53.925781 110.183594 52.628906 " fill-opacity="1" fill-rule="nonzero"/></g></g></g></g><g fill="#000000" fill-opacity="1"><g transform="translate(277.932558, 257.036589)"><g><path d="M 7.78125 1.328125 C 6.300781 1.328125 5.5625 0.617188 5.5625 -0.796875 L 7.78125 -19.265625 C 8.007812 -20.554688 8.773438 -21.265625 10.078125 -21.390625 C 19.265625 -22.328125 25.328125 -23.78125 28.265625 -25.75 C 31.210938 -27.726562 32.6875 -31.660156 32.6875 -37.546875 C 32.6875 -43.441406 31.1875 -51.113281 28.1875 -60.5625 C 25.1875 -70.019531 23.242188 -76.3125 22.359375 -79.4375 C 19.523438 -89.445312 18.109375 -97.648438 18.109375 -104.046875 C 18.109375 -110.441406 19.140625 -115.90625 21.203125 -120.4375 C 23.265625 -124.976562 26.210938 -128.601562 30.046875 -131.3125 C 37.460938 -136.488281 47.445312 -139.078125 60 -139.078125 C 61.59375 -139.078125 62.390625 -138.34375 62.390625 -136.875 L 60 -118.578125 C 59.757812 -117.109375 59.023438 -116.316406 57.796875 -116.203125 C 46.359375 -115.429688 40.640625 -112.039062 40.640625 -106.03125 C 40.640625 -100.5 43.070312 -89.617188 47.9375 -73.390625 C 52.800781 -57.160156 55.234375 -45.539062 55.234375 -38.53125 C 55.234375 -11.957031 39.414062 1.328125 7.78125 1.328125 Z M 7.78125 1.328125 "/></g></g></g><g fill="#000000" fill-opacity="1"><g transform="translate(341.018413, 257.036589)"><g><path d="M 66.09375 -60.4375 L 38.609375 -59.375 L 34.46875 -23.15625 L 68.3125 -24.296875 C 69.84375 -24.242188 70.609375 -23.476562 70.609375 -22 L 68.3125 -3.71875 C 68.1875 -2.476562 67.414062 -1.707031 66 -1.40625 L 11.65625 0.359375 C 10.363281 0.359375 9.71875 -0.203125 9.71875 -1.328125 L 25 -135.015625 C 25.238281 -136.253906 26.003906 -136.929688 27.296875 -137.046875 L 75.734375 -138.734375 C 77.203125 -138.554688 77.9375 -137.757812 77.9375 -136.34375 L 75.734375 -118.046875 C 75.554688 -116.578125 74.789062 -115.785156 73.4375 -115.671875 L 44.984375 -114.875 L 41.171875 -82 L 68.390625 -82.96875 C 69.921875 -82.914062 70.6875 -82.148438 70.6875 -80.671875 L 68.390625 -62.65625 C 68.160156 -61.300781 67.394531 -60.5625 66.09375 -60.4375 Z M 66.09375 -60.4375 "/></g></g></g><g fill="#000000" fill-opacity="1"><g transform="translate(420.980175, 257.036589)"><g><path d="M 25 -1.859375 L 14.75 -134.9375 C 14.75 -136.289062 15.546875 -136.992188 17.140625 -137.046875 L 35.515625 -137.671875 C 36.816406 -137.671875 37.46875 -137.109375 37.46875 -135.984375 L 41.625 -36.3125 L 65.03125 -134.9375 C 65.207031 -135.695312 65.425781 -136.222656 65.6875 -136.515625 C 65.957031 -136.816406 66.445312 -136.992188 67.15625 -137.046875 L 85.453125 -137.765625 C 86.742188 -137.765625 87.390625 -137.203125 87.390625 -136.078125 L 48.59375 -2.46875 C 48.1875 -1.0625 47.484375 -0.359375 46.484375 -0.359375 L 26.953125 0.359375 C 25.773438 0.296875 25.125 -0.441406 25 -1.859375 Z M 25 -1.859375 "/></g></g></g><g fill="#000000" fill-opacity="1"><g transform="translate(502.09056, 257.036589)"><g><path d="M 66.09375 -60.4375 L 38.609375 -59.375 L 34.46875 -23.15625 L 68.3125 -24.296875 C 69.84375 -24.242188 70.609375 -23.476562 70.609375 -22 L 68.3125 -3.71875 C 68.1875 -2.476562 67.414062 -1.707031 66 -1.40625 L 11.65625 0.359375 C 10.363281 0.359375 9.71875 -0.203125 9.71875 -1.328125 L 25 -135.015625 C 25.238281 -136.253906 26.003906 -136.929688 27.296875 -137.046875 L 75.734375 -138.734375 C 77.203125 -138.554688 77.9375 -137.757812 77.9375 -136.34375 L 75.734375 -118.046875 C 75.554688 -116.578125 74.789062 -115.785156 73.4375 -115.671875 L 44.984375 -114.875 L 41.171875 -82 L 68.390625 -82.96875 C 69.921875 -82.914062 70.6875 -82.148438 70.6875 -80.671875 L 68.390625 -62.65625 C 68.160156 -61.300781 67.394531 -60.5625 66.09375 -60.4375 Z M 66.09375 -60.4375 "/></g></g></g><g fill="#000000" fill-opacity="1"><g transform="translate(582.052323, 257.036589)"><g><path d="M 94.015625 -135.90625 L 78.828125 -2.828125 C 78.585938 -1.472656 77.816406 -0.738281 76.515625 -0.625 L 59.03125 0.359375 C 58.03125 0.359375 57.441406 -0.203125 57.265625 -1.328125 L 38.703125 -95.703125 L 32.171875 -2.46875 C 32.109375 -1.0625 31.335938 -0.328125 29.859375 -0.265625 L 11.65625 0.359375 C 10.363281 0.359375 9.71875 -0.203125 9.71875 -1.328125 L 25 -135.015625 C 25.238281 -136.253906 26.003906 -136.929688 27.296875 -137.046875 L 45.25 -138.03125 C 46.070312 -138.03125 46.613281 -137.863281 46.875 -137.53125 C 47.144531 -137.207031 47.367188 -136.664062 47.546875 -135.90625 L 65.484375 -46.75 L 71.65625 -135.015625 C 71.71875 -136.316406 72.515625 -136.992188 74.046875 -137.046875 L 91.640625 -138.03125 C 93.222656 -138.03125 94.015625 -137.320312 94.015625 -135.90625 Z M 94.015625 -135.90625 "/></g></g></g></svg>